<svg width="86" height="31" viewBox="0 0 86 31" fill="none" xmlns="http://www.w3.org/2000/svg">
<g filter="url(#filter0_d_32_864)">
<rect width="86" height="27" rx="8" fill="#FFF0A1"/>
<path d="M33.6216 7.436V14.926H34.7836V7.436H33.6216ZM30.4016 10.628V11.58H33.9016V10.628H30.4016ZM24.9556 8.388V14.002H30.7376V8.388H24.9556ZM29.5896 9.326V13.064H26.0896V9.326H29.5896ZM30.6256 15.304C28.0076 15.304 26.3976 16.186 26.3976 17.698C26.3976 19.196 28.0076 20.078 30.6256 20.078C33.2296 20.078 34.8396 19.196 34.8396 17.698C34.8396 16.186 33.2296 15.304 30.6256 15.304ZM30.6256 16.228C32.5296 16.228 33.6916 16.76 33.6916 17.698C33.6916 18.622 32.5296 19.168 30.6256 19.168C28.7216 19.168 27.5596 18.622 27.5596 17.698C27.5596 16.76 28.7216 16.228 30.6256 16.228ZM42.3845 7.604V8.164C42.3845 9.802 40.1865 11.202 37.9045 11.51L38.3385 12.42C40.9285 12.014 43.3785 10.404 43.3785 8.164V7.604H42.3845ZM42.5665 7.604V8.164C42.5665 10.362 45.0165 12.014 47.5925 12.42L48.0265 11.51C45.7865 11.202 43.5605 9.76 43.5605 8.164V7.604H42.5665ZM42.3845 14.156V16.34H43.5325V14.156H42.3845ZM37.2465 13.428V14.366H48.6845V13.428H37.2465ZM38.5205 15.962V16.9H46.1085V20.092H47.2705V15.962H38.5205ZM50.1395 17.488V18.454H61.6055V17.488H50.1395ZM55.2355 14.422V17.81H56.3835V14.422H55.2355ZM55.2075 8.276V9.256C55.2075 11.342 52.8135 13.204 50.5875 13.61L51.0775 14.576C53.6255 14.044 56.2155 11.958 56.2155 9.256V8.276H55.2075ZM55.4175 8.276V9.256C55.4175 11.958 58.0075 14.044 60.5555 14.576L61.0595 13.61C58.8335 13.204 56.4255 11.356 56.4255 9.256V8.276H55.4175Z" fill="#333333"/>
<rect x="1" y="1" width="84" height="25" rx="7" stroke="#333333" stroke-width="2"/>
</g>
<defs>
<filter id="filter0_d_32_864" x="0" y="0" width="86" height="31" filterUnits="userSpaceOnUse" color-interpolation-filters="sRGB">
<feFlood flood-opacity="0" result="BackgroundImageFix"/>
<feColorMatrix in="SourceAlpha" type="matrix" values="0 0 0 0 0 0 0 0 0 0 0 0 0 0 0 0 0 0 127 0" result="hardAlpha"/>
<feOffset dy="4"/>
<feComposite in2="hardAlpha" operator="out"/>
<feColorMatrix type="matrix" values="0 0 0 0 0.2 0 0 0 0 0.2 0 0 0 0 0.2 0 0 0 0.16 0"/>
<feBlend mode="normal" in2="BackgroundImageFix" result="effect1_dropShadow_32_864"/>
<feBlend mode="normal" in="SourceGraphic" in2="effect1_dropShadow_32_864" result="shape"/>
</filter>
</defs>
</svg>
