<svg width="84" height="31" viewBox="0 0 84 31" fill="none" xmlns="http://www.w3.org/2000/svg">
<g filter="url(#filter0_d_32_865)">
<rect width="84" height="27" rx="8" fill="#FFF0A1"/>
<path d="M32.6216 7.436V14.926H33.7836V7.436H32.6216ZM29.4016 10.628V11.58H32.9016V10.628H29.4016ZM23.9556 8.388V14.002H29.7376V8.388H23.9556ZM28.5896 9.326V13.064H25.0896V9.326H28.5896ZM29.6256 15.304C27.0076 15.304 25.3976 16.186 25.3976 17.698C25.3976 19.196 27.0076 20.078 29.6256 20.078C32.2296 20.078 33.8396 19.196 33.8396 17.698C33.8396 16.186 32.2296 15.304 29.6256 15.304ZM29.6256 16.228C31.5296 16.228 32.6916 16.76 32.6916 17.698C32.6916 18.622 31.5296 19.168 29.6256 19.168C27.7216 19.168 26.5596 18.622 26.5596 17.698C26.5596 16.76 27.7216 16.228 29.6256 16.228ZM41.6365 8.752V8.878C41.6365 12.322 40.3765 15.15 36.3725 17.124L37.0025 18.02C41.5385 15.766 42.7705 12.406 42.7705 8.752H41.6365ZM37.0585 8.752V9.69H42.3225V8.752H37.0585ZM41.4545 11.888L36.4285 12.224L36.6105 13.26L41.4545 12.784V11.888ZM44.8145 7.422V20.092H45.9905V7.422H44.8145ZM45.6685 12.56V13.526H48.0065V12.56H45.6685ZM58.8275 7.436V20.092H59.9475V7.436H58.8275ZM54.6555 12.252V13.274H56.7555V12.252H54.6555ZM56.3775 7.744V19.434H57.4835V7.744H56.3775ZM49.2515 9.032V9.984H55.0335V9.032H49.2515ZM49.1395 16.984C50.7635 16.984 53.4095 16.928 55.3835 16.55L55.2995 15.696C53.3815 15.948 50.6375 16.004 48.9995 16.004L49.1395 16.984ZM50.2875 9.648V16.27H51.3515V9.648H50.2875ZM52.9195 9.648V16.27H53.9835V9.648H52.9195Z" fill="#333333"/>
<rect x="1" y="1" width="82" height="25" rx="7" stroke="#333333" stroke-width="2"/>
</g>
<defs>
<filter id="filter0_d_32_865" x="0" y="0" width="84" height="31" filterUnits="userSpaceOnUse" color-interpolation-filters="sRGB">
<feFlood flood-opacity="0" result="BackgroundImageFix"/>
<feColorMatrix in="SourceAlpha" type="matrix" values="0 0 0 0 0 0 0 0 0 0 0 0 0 0 0 0 0 0 127 0" result="hardAlpha"/>
<feOffset dy="4"/>
<feComposite in2="hardAlpha" operator="out"/>
<feColorMatrix type="matrix" values="0 0 0 0 0.2 0 0 0 0 0.2 0 0 0 0 0.2 0 0 0 0.16 0"/>
<feBlend mode="normal" in2="BackgroundImageFix" result="effect1_dropShadow_32_865"/>
<feBlend mode="normal" in="SourceGraphic" in2="effect1_dropShadow_32_865" result="shape"/>
</filter>
</defs>
</svg>
