<svg width="30" height="30" viewBox="0 0 30 30" fill="none" xmlns="http://www.w3.org/2000/svg">
<path d="M1.04748 17.88C1.469 18.386 1.99646 18.7933 2.59264 19.0733C3.18881 19.3532 3.83916 19.4988 4.49778 19.5L11.3384 19.5L10.4983 21.645C10.1489 22.5841 10.0325 23.594 10.1592 24.5881C10.2859 25.5821 10.6518 26.5306 11.2256 27.3521C11.7994 28.1736 12.5639 28.8437 13.4537 29.3049C14.3434 29.7661 15.3317 30.0046 16.3338 29.9999C16.6224 29.9993 16.9046 29.9155 17.1468 29.7585C17.3889 29.6016 17.5806 29.3781 17.6989 29.1149L21.9743 19.5H25.4996C26.6932 19.5 27.8379 19.0259 28.6819 18.1819C29.5259 17.338 30 16.1934 30 15V4.49999C30 3.30652 29.5259 2.16193 28.6819 1.31802C27.8379 0.474105 26.6932 9.53821e-07 25.4996 9.53821e-07L6.40295 9.53821e-07C5.35014 0.000351809 4.33078 0.369764 3.52222 1.04396C2.71365 1.71816 2.16707 2.65447 1.97756 3.68999L0.0723971 14.19C-0.0454386 14.8389 -0.019176 15.5058 0.149325 16.1435C0.317826 16.7811 0.624449 17.3739 1.04748 17.88ZM22.4993 2.99999H25.4996C25.8975 2.99999 26.279 3.15803 26.5604 3.43933C26.8417 3.72064 26.9997 4.10217 26.9997 4.49999L26.9997 15C26.9997 15.3978 26.8417 15.7793 26.5604 16.0606C26.279 16.3419 25.8975 16.5 25.4996 16.5H22.4993L22.4993 2.99999ZM2.99765 14.73L4.90282 4.22999C4.96672 3.88056 5.15257 3.56514 5.42728 3.33989C5.70199 3.11465 6.04774 2.9942 6.40295 2.99999L19.4991 2.99999L19.4991 17.685L15.4187 26.8649C14.9987 26.7425 14.6087 26.5343 14.2731 26.2536C13.9376 25.9728 13.664 25.6255 13.4695 25.2337C13.2749 24.8419 13.1638 24.414 13.143 23.977C13.1221 23.54 13.1921 23.1035 13.3486 22.6949L14.1436 20.55C14.313 20.0966 14.3702 19.6089 14.3103 19.1287C14.2504 18.6484 14.0752 18.1897 13.7996 17.7919C13.524 17.394 13.1562 17.0687 12.7276 16.8437C12.2991 16.6187 11.8224 16.5008 11.3384 16.5L4.49778 16.5C4.2774 16.5003 4.05964 16.4521 3.86 16.3588C3.66035 16.2655 3.48373 16.1293 3.34268 15.96C3.19817 15.793 3.09231 15.5961 3.03267 15.3835C2.97303 15.1709 2.96107 14.9477 2.99765 14.73Z" fill="#333333"/>
</svg>
