<svg width="21" height="18" viewBox="0 0 21 18" fill="none" xmlns="http://www.w3.org/2000/svg">
<path d="M17.0017 0C16.2061 0 15.443 0.316071 14.8804 0.87868C14.3178 1.44129 14.0017 2.20435 14.0017 3V15C14.0017 15.7956 14.3178 16.5587 14.8804 17.1213C15.443 17.6839 16.2061 18 17.0017 18C17.7974 18 18.5604 17.6839 19.123 17.1213C19.6856 16.5587 20.0017 15.7956 20.0017 15V3C20.0017 2.20435 19.6856 1.44129 19.123 0.87868C18.5604 0.316071 17.7974 0 17.0017 0ZM18.0017 15C18.0017 15.2652 17.8964 15.5196 17.7088 15.7071C17.5213 15.8946 17.2669 16 17.0017 16C16.7365 16 16.4821 15.8946 16.2946 15.7071C16.1071 15.5196 16.0017 15.2652 16.0017 15V3C16.0017 2.73478 16.1071 2.48043 16.2946 2.29289C16.4821 2.10536 16.7365 2 17.0017 2C17.2669 2 17.5213 2.10536 17.7088 2.29289C17.8964 2.48043 18.0017 2.73478 18.0017 3V15ZM10.6317 2.63C10.2317 2.3943 9.77596 2.27 9.31172 2.27C8.84747 2.27 8.39168 2.3943 7.99171 2.63L1.32171 6.63C0.918174 6.87526 0.584591 7.22031 0.353097 7.63191C0.121604 8.0435 0 8.50777 0 8.98C0 9.45223 0.121604 9.9165 0.353097 10.3281C0.584591 10.7397 0.918174 11.0847 1.32171 11.33L7.99171 15.33C8.39061 15.5688 8.84681 15.6949 9.31172 15.6949C9.77662 15.6949 10.2328 15.5688 10.6317 15.33C11.042 15.0932 11.3839 14.7541 11.624 14.3457C11.8641 13.9373 11.9943 13.4737 12.0017 13V5C12.0012 4.51952 11.8744 4.04763 11.6339 3.63165C11.3934 3.21567 11.0478 2.87024 10.6317 2.63V2.63ZM10.0017 13C10.0046 13.1292 9.97278 13.2567 9.90944 13.3693C9.84609 13.4819 9.75362 13.5754 9.64172 13.64C9.54665 13.6973 9.43773 13.7276 9.32671 13.7276C9.2157 13.7276 9.10678 13.6973 9.01171 13.64L2.35171 9.64C2.24436 9.57125 2.15603 9.4766 2.09484 9.36476C2.03366 9.25292 2.00159 9.12748 2.00159 9C2.00159 8.87252 2.03366 8.74708 2.09484 8.63524C2.15603 8.5234 2.24436 8.42875 2.35171 8.36L9.01171 4.36C9.1084 4.30189 9.21891 4.27081 9.33171 4.27C9.44016 4.26997 9.54683 4.2975 9.64172 4.35C9.75515 4.41538 9.84861 4.51044 9.91204 4.62497C9.97547 4.7395 10.0065 4.86916 10.0017 5V13Z" fill="#333333"/>
</svg>
