<svg width="171" height="65" viewBox="0 0 171 65" fill="none" xmlns="http://www.w3.org/2000/svg">
<rect x="2.12256" y="2" width="165.943" height="45.4686" rx="12" fill="#F5F5F5" stroke="black" stroke-width="4"/>
<path d="M42.62 16.6243C43.26 16.6243 43.8933 16.7843 44.52 17.1043C45.16 17.4243 45.48 17.7843 45.48 18.1843C45.48 18.7976 45.2267 19.1043 44.72 19.1043C44.5333 19.1043 44.2067 18.9843 43.74 18.7443C43.2733 18.5043 42.88 18.3843 42.56 18.3843C41.4133 18.3843 40.4533 18.8976 39.68 19.9243C38.92 20.951 38.54 22.2576 38.54 23.8443C38.54 25.031 38.8 26.071 39.32 26.9643C39.84 27.8576 40.4533 28.3043 41.16 28.3043C41.88 28.3043 42.44 28.071 42.84 27.6043C43.2533 27.1243 43.46 26.5843 43.46 25.9843C43.46 25.651 43.4333 25.3776 43.38 25.1643C43.34 24.9376 43.2267 24.7376 43.04 24.5643C42.8533 24.3776 42.6067 24.2843 42.3 24.2843C41.9933 24.2843 41.7 24.2176 41.42 24.0843C41.1533 23.951 41.02 23.771 41.02 23.5443C41.02 23.3176 41.0867 23.1043 41.22 22.9043C41.3533 22.7043 41.5333 22.5843 41.76 22.5443C42.6667 22.5443 43.2733 22.6376 43.58 22.8243C43.9 23.011 44.14 23.1643 44.3 23.2843C44.46 23.4043 44.5933 23.6043 44.7 23.8843C44.8067 24.1643 44.8867 24.3976 44.94 24.5843C45.0067 24.771 45.0533 25.071 45.08 25.4843C45.1067 26.1776 45.12 26.991 45.12 27.9243C45.12 28.8443 45.0533 29.411 44.92 29.6243C44.8 29.7976 44.6 29.891 44.32 29.9043C44.04 29.9043 43.8467 29.8443 43.74 29.7243C43.6333 29.6043 43.5667 29.3376 43.54 28.9243C43.22 29.2043 42.8133 29.4443 42.32 29.6443C41.84 29.831 41.4133 29.9243 41.04 29.9243C39.8667 29.9243 38.88 29.3043 38.08 28.0643C37.28 26.811 36.88 25.3043 36.88 23.5443C36.88 22.611 37.0333 21.6976 37.34 20.8043C37.6467 19.8976 38.06 19.1376 38.58 18.5243C39.6733 17.2576 41.02 16.6243 42.62 16.6243ZM49.9094 20.5843C50.8694 20.5843 51.656 21.0443 52.2694 21.9643C52.896 22.8843 53.2094 23.991 53.2094 25.2843C53.2094 26.5643 52.8894 27.6576 52.2494 28.5643C51.6227 29.471 50.7827 29.9243 49.7294 29.9243C48.6894 29.9243 47.8494 29.4643 47.2094 28.5443C46.5694 27.611 46.2494 26.5776 46.2494 25.4443C46.2494 23.991 46.5427 22.831 47.1294 21.9643C47.756 21.0443 48.6827 20.5843 49.9094 20.5843ZM49.6694 22.2243C49.1094 22.2243 48.6494 22.5176 48.2894 23.1043C47.9294 23.691 47.7494 24.311 47.7494 24.9643C47.7494 25.9776 47.9494 26.751 48.3494 27.2843C48.7494 27.8176 49.2027 28.0843 49.7094 28.0843C50.616 28.0843 51.196 27.691 51.4494 26.9043C51.556 26.531 51.6094 26.0643 51.6094 25.5043C51.6094 23.3176 50.9627 22.2243 49.6694 22.2243ZM57.9758 20.5843C58.9358 20.5843 59.7224 21.0443 60.3358 21.9643C60.9624 22.8843 61.2758 23.991 61.2758 25.2843C61.2758 26.5643 60.9558 27.6576 60.3158 28.5643C59.6891 29.471 58.8491 29.9243 57.7958 29.9243C56.7558 29.9243 55.9158 29.4643 55.2758 28.5443C54.6358 27.611 54.3158 26.5776 54.3158 25.4443C54.3158 23.991 54.6091 22.831 55.1958 21.9643C55.8224 21.0443 56.7491 20.5843 57.9758 20.5843ZM57.7358 22.2243C57.1758 22.2243 56.7158 22.5176 56.3558 23.1043C55.9958 23.691 55.8158 24.311 55.8158 24.9643C55.8158 25.9776 56.0158 26.751 56.4158 27.2843C56.8158 27.8176 57.2691 28.0843 57.7758 28.0843C58.6824 28.0843 59.2624 27.691 59.5158 26.9043C59.6224 26.531 59.6758 26.0643 59.6758 25.5043C59.6758 23.3176 59.0291 22.2243 57.7358 22.2243ZM68.2422 29.0843C67.7622 29.6443 67.1555 29.9243 66.4222 29.9243C65.6889 29.9243 65.0555 29.6976 64.5222 29.2443C63.4022 28.3776 62.8422 27.051 62.8422 25.2643C62.8422 23.8643 63.2289 22.7443 64.0022 21.9043C64.7755 21.051 65.7289 20.6243 66.8622 20.6243C67.9955 20.6243 68.7689 21.011 69.1822 21.7843C69.5422 22.4643 69.7222 23.491 69.7222 24.8643L69.6822 26.5043C69.6822 27.2776 69.7155 28.351 69.7822 29.7243C69.8622 31.0843 69.9022 32.111 69.9022 32.8043C69.9022 33.951 69.6155 34.791 69.0422 35.3243C68.4822 35.871 67.6222 36.1443 66.4622 36.1443C65.7689 36.1443 65.0622 35.9976 64.3422 35.7043C63.6222 35.411 63.2622 35.071 63.2622 34.6843C63.2622 34.4043 63.3355 34.191 63.4822 34.0443C63.6422 33.8976 63.8222 33.8243 64.0222 33.8243C64.2222 33.8243 64.6689 33.971 65.3622 34.2643C66.0689 34.5576 66.5755 34.7043 66.8822 34.7043C67.8422 34.7043 68.3222 33.9176 68.3222 32.3443C68.3222 30.771 68.2955 29.6843 68.2422 29.0843ZM68.2222 24.8643C68.2222 23.891 68.0755 23.211 67.7822 22.8243C67.5022 22.4243 67.0555 22.2243 66.4422 22.2243C65.8289 22.2243 65.3355 22.5043 64.9622 23.0643C64.5889 23.6243 64.4022 24.3376 64.4022 25.2043C64.4022 26.0576 64.5755 26.7376 64.9222 27.2443C65.2822 27.751 65.8289 28.0043 66.5622 28.0043C67.2955 28.0043 67.7689 27.691 67.9822 27.0643C68.1422 26.5576 68.2222 25.8243 68.2222 24.8643ZM71.3484 16.9643C71.3884 16.4576 71.4684 16.131 71.5884 15.9843C71.7218 15.8243 71.9284 15.7443 72.2084 15.7443C72.7818 15.7443 73.0684 15.9776 73.0684 16.4443C73.0684 16.8043 73.0351 17.7443 72.9684 19.2643C72.9151 20.7843 72.8884 22.1443 72.8884 23.3443C72.8884 24.5443 72.9351 25.511 73.0284 26.2443C73.1884 27.5243 73.4151 28.1643 73.7084 28.1643C74.0018 28.1643 74.2218 27.9576 74.3684 27.5443C74.4351 27.3843 74.5418 27.2443 74.6884 27.1243C74.8351 26.991 75.0218 26.9243 75.2484 26.9243C75.7151 26.9243 75.9484 27.3176 75.9484 28.1043C75.9484 28.531 75.7151 28.9576 75.2484 29.3843C74.7951 29.7976 74.3418 30.0043 73.8884 30.0043C73.4351 30.0043 73.0684 29.931 72.7884 29.7843C72.5218 29.6243 72.3018 29.391 72.1284 29.0843C71.9684 28.7776 71.8351 28.4843 71.7284 28.2043C71.6351 27.911 71.5684 27.5576 71.5284 27.1443C71.4484 26.4776 71.3884 25.411 71.3484 23.9443C71.3218 22.4643 71.3084 21.0576 71.3084 19.7243C71.3084 18.3776 71.3218 17.4576 71.3484 16.9643ZM79.6009 20.6443C80.3076 20.6443 80.9809 20.851 81.6209 21.2643C82.2609 21.6776 82.5809 22.191 82.5809 22.8043C82.5809 23.4043 82.3209 23.991 81.8009 24.5643C81.2809 25.1243 80.5876 25.4643 79.7209 25.5843C79.3476 25.6376 78.7876 25.6643 78.0409 25.6643C78.1876 26.7976 78.4743 27.5443 78.9009 27.9043C79.0343 28.051 79.2143 28.1243 79.4409 28.1243C80.2676 28.1243 80.9609 27.8643 81.5209 27.3443C82.0809 26.811 82.4809 26.5443 82.7209 26.5443C82.8276 26.5443 82.9876 26.6443 83.2009 26.8443C83.4143 27.0443 83.5209 27.231 83.5209 27.4043C83.5209 27.751 83.1009 28.251 82.2609 28.9043C81.8876 29.211 81.4343 29.471 80.9009 29.6843C80.3809 29.8843 79.8943 29.9843 79.4409 29.9843C78.2809 29.9843 77.4276 29.2376 76.8809 27.7443C76.5343 26.8243 76.3609 25.811 76.3609 24.7043C76.3609 23.5976 76.6209 22.6443 77.1409 21.8443C77.6609 21.0443 78.4809 20.6443 79.6009 20.6443ZM79.7009 22.0243C79.1943 22.0243 78.7609 22.311 78.4009 22.8843C78.2676 23.0843 78.1409 23.5376 78.0209 24.2443C79.8876 24.2443 80.8209 23.7843 80.8209 22.8643C80.8209 22.3043 80.4476 22.0243 79.7009 22.0243ZM89.0791 27.1243L89.0991 25.5643L89.2791 17.2043C89.2791 17.0443 89.3657 16.9176 89.5391 16.8243C89.7124 16.731 89.9324 16.6843 90.1991 16.6843C90.8391 16.6843 91.1591 16.911 91.1591 17.3643C91.1591 17.511 91.0791 18.631 90.9191 20.7243C90.7724 22.8176 90.6991 24.071 90.6991 24.4843C90.6991 24.4843 90.6991 25.191 90.6991 26.6043C90.6991 27.6043 90.7657 28.151 90.8991 28.2443C91.0991 28.311 91.3324 28.3443 91.5991 28.3443L94.4791 28.1443C95.1057 28.1443 95.4191 28.371 95.4191 28.8243C95.4191 29.1843 95.2457 29.451 94.8991 29.6243C94.5657 29.7843 94.2324 29.8776 93.8991 29.9043C93.5657 29.9176 93.1591 29.9243 92.6791 29.9243C90.5857 29.9243 89.4524 29.8576 89.2791 29.7243C89.1857 29.6443 89.1324 29.3443 89.1191 28.8243C89.1057 28.291 89.0924 27.9176 89.0791 27.7043C89.0791 27.491 89.0791 27.2976 89.0791 27.1243ZM100.28 20.5843C101.24 20.5843 102.027 21.0443 102.64 21.9643C103.267 22.8843 103.58 23.991 103.58 25.2843C103.58 26.5643 103.26 27.6576 102.62 28.5643C101.994 29.471 101.154 29.9243 100.1 29.9243C99.0605 29.9243 98.2205 29.4643 97.5805 28.5443C96.9405 27.611 96.6205 26.5776 96.6205 25.4443C96.6205 23.991 96.9138 22.831 97.5005 21.9643C98.1271 21.0443 99.0538 20.5843 100.28 20.5843ZM100.04 22.2243C99.4805 22.2243 99.0205 22.5176 98.6605 23.1043C98.3005 23.691 98.1205 24.311 98.1205 24.9643C98.1205 25.9776 98.3205 26.751 98.7205 27.2843C99.1205 27.8176 99.5738 28.0843 100.08 28.0843C100.987 28.0843 101.567 27.691 101.82 26.9043C101.927 26.531 101.98 26.0643 101.98 25.5043C101.98 23.3176 101.334 22.2243 100.04 22.2243ZM110.547 29.0843C110.067 29.6443 109.46 29.9243 108.727 29.9243C107.994 29.9243 107.36 29.6976 106.827 29.2443C105.707 28.3776 105.147 27.051 105.147 25.2643C105.147 23.8643 105.534 22.7443 106.307 21.9043C107.08 21.051 108.034 20.6243 109.167 20.6243C110.3 20.6243 111.074 21.011 111.487 21.7843C111.847 22.4643 112.027 23.491 112.027 24.8643L111.987 26.5043C111.987 27.2776 112.02 28.351 112.087 29.7243C112.167 31.0843 112.207 32.111 112.207 32.8043C112.207 33.951 111.92 34.791 111.347 35.3243C110.787 35.871 109.927 36.1443 108.767 36.1443C108.074 36.1443 107.367 35.9976 106.647 35.7043C105.927 35.411 105.567 35.071 105.567 34.6843C105.567 34.4043 105.64 34.191 105.787 34.0443C105.947 33.8976 106.127 33.8243 106.327 33.8243C106.527 33.8243 106.974 33.971 107.667 34.2643C108.374 34.5576 108.88 34.7043 109.187 34.7043C110.147 34.7043 110.627 33.9176 110.627 32.3443C110.627 30.771 110.6 29.6843 110.547 29.0843ZM110.527 24.8643C110.527 23.891 110.38 23.211 110.087 22.8243C109.807 22.4243 109.36 22.2243 108.747 22.2243C108.134 22.2243 107.64 22.5043 107.267 23.0643C106.894 23.6243 106.707 24.3376 106.707 25.2043C106.707 26.0576 106.88 26.7376 107.227 27.2443C107.587 27.751 108.134 28.0043 108.867 28.0043C109.6 28.0043 110.074 27.691 110.287 27.0643C110.447 26.5576 110.527 25.8243 110.527 24.8643ZM115.033 17.2643C115.273 17.2643 115.5 17.3776 115.713 17.6043C115.926 17.831 116.033 18.071 116.033 18.3243C116.033 18.5643 115.913 18.811 115.673 19.0643C115.446 19.3176 115.206 19.4443 114.953 19.4443C114.7 19.4443 114.466 19.3376 114.253 19.1243C114.053 18.911 113.953 18.6376 113.953 18.3043C113.953 17.6643 114.3 17.3176 114.993 17.2643C115.006 17.2643 115.02 17.2643 115.033 17.2643ZM115.873 27.7443L115.893 29.1443C115.893 29.3976 115.793 29.611 115.593 29.7843C115.393 29.9443 115.18 30.0243 114.953 30.0243C114.62 30.0243 114.446 29.8576 114.433 29.5243C114.26 25.271 114.173 22.9176 114.173 22.4643C114.173 22.011 114.193 21.4576 114.233 20.8043C114.26 20.5643 114.413 20.4443 114.693 20.4443C115.4 20.4443 115.8 20.731 115.893 21.3043C115.933 21.5976 115.953 21.831 115.953 22.0043L115.873 23.2643V27.7443ZM118.946 29.2843L118.726 21.1643C118.726 20.911 118.812 20.7043 118.986 20.5443C119.159 20.3843 119.332 20.3043 119.506 20.3043C119.932 20.3043 120.179 20.4843 120.246 20.8443C120.299 21.2043 120.326 21.5776 120.326 21.9643C121.046 21.0176 121.946 20.5443 123.026 20.5443C124.679 20.5443 125.506 22.431 125.506 26.2043C125.506 26.551 125.506 27.0776 125.506 27.7843C125.506 28.4776 125.466 28.9843 125.386 29.3043C125.292 29.7043 125.006 29.9043 124.526 29.9043C124.206 29.9043 124.046 29.691 124.046 29.2643L124.066 28.1443C124.066 26.5976 124.012 25.5443 123.906 24.9843C123.812 24.411 123.719 23.9576 123.626 23.6243C123.399 22.9043 123.032 22.5443 122.526 22.5443C121.859 22.5443 121.392 22.7843 121.126 23.2643C120.832 23.7843 120.659 24.3976 120.606 25.1043C120.512 26.3443 120.466 27.6576 120.466 29.0443C120.466 29.311 120.366 29.5243 120.166 29.6843C119.966 29.8443 119.726 29.9243 119.446 29.9243C119.112 29.9243 118.946 29.711 118.946 29.2843Z" fill="black"/>
</svg>