<svg width="138" height="47" viewBox="0 0 138 47" fill="none" xmlns="http://www.w3.org/2000/svg">
<g clip-path="url(#clip0_90_615)">
<rect x="2" y="2.5" width="134" height="42" rx="8" fill="white"/>
<path d="M49.0303 36.8721C48.6364 36.8721 48.2926 36.847 47.999 36.7969C47.6982 36.7539 47.4404 36.693 47.2256 36.6143V34.4551C47.4548 34.5124 47.7018 34.5625 47.9668 34.6055C48.2318 34.6484 48.5146 34.6699 48.8154 34.6699C49.2093 34.6699 49.5674 34.5947 49.8896 34.4443C50.2119 34.2939 50.4661 34.0218 50.6523 33.6279C50.8457 33.234 50.9424 32.679 50.9424 31.9629V16.7949H53.5205V31.877C53.5205 33.0443 53.3343 33.9932 52.9619 34.7236C52.5895 35.4613 52.0667 36.002 51.3936 36.3457C50.7204 36.6966 49.9326 36.8721 49.0303 36.8721ZM67.8506 26.5273C67.8506 27.5156 67.7217 28.3929 67.4639 29.1592C67.2061 29.9255 66.8301 30.5736 66.3359 31.1035C65.8418 31.6263 65.2474 32.0273 64.5527 32.3066C63.8581 32.5788 63.0739 32.7148 62.2002 32.7148C61.3838 32.7148 60.6354 32.5788 59.9551 32.3066C59.2747 32.0273 58.6839 31.6263 58.1826 31.1035C57.6885 30.5736 57.3053 29.9255 57.0332 29.1592C56.7611 28.3929 56.625 27.5156 56.625 26.5273C56.625 25.2168 56.8506 24.1068 57.3018 23.1973C57.7601 22.2806 58.4118 21.5824 59.2568 21.1025C60.1019 20.6227 61.1081 20.3828 62.2754 20.3828C63.3711 20.3828 64.3379 20.6227 65.1758 21.1025C66.0137 21.5824 66.6689 22.2806 67.1416 23.1973C67.6143 24.1139 67.8506 25.224 67.8506 26.5273ZM59.2246 26.5273C59.2246 27.3939 59.3285 28.1351 59.5361 28.751C59.751 29.3669 60.0804 29.8395 60.5244 30.1689C60.9684 30.4912 61.5413 30.6523 62.2432 30.6523C62.945 30.6523 63.5179 30.4912 63.9619 30.1689C64.4059 29.8395 64.7318 29.3669 64.9395 28.751C65.1471 28.1351 65.251 27.3939 65.251 26.5273C65.251 25.6608 65.1471 24.9268 64.9395 24.3252C64.7318 23.7165 64.4059 23.2546 63.9619 22.9395C63.5179 22.6172 62.9414 22.4561 62.2324 22.4561C61.1868 22.4561 60.4242 22.807 59.9443 23.5088C59.4645 24.2106 59.2246 25.2168 59.2246 26.5273ZM73.2754 20.6084V32.5H70.751V20.6084H73.2754ZM72.0293 16.0537C72.416 16.0537 72.749 16.1576 73.0283 16.3652C73.3148 16.5729 73.458 16.931 73.458 17.4395C73.458 17.9408 73.3148 18.2988 73.0283 18.5137C72.749 18.7214 72.416 18.8252 72.0293 18.8252C71.6283 18.8252 71.2881 18.7214 71.0088 18.5137C70.7367 18.2988 70.6006 17.9408 70.6006 17.4395C70.6006 16.931 70.7367 16.5729 71.0088 16.3652C71.2881 16.1576 71.6283 16.0537 72.0293 16.0537ZM83.0938 20.3828C84.4329 20.3828 85.4749 20.7301 86.2197 21.4248C86.9717 22.1123 87.3477 23.2188 87.3477 24.7441V32.5H84.8232V25.2168C84.8232 24.293 84.6335 23.6019 84.2539 23.1436C83.8743 22.6781 83.2871 22.4453 82.4922 22.4453C81.3392 22.4453 80.5371 22.7998 80.0859 23.5088C79.6419 24.2178 79.4199 25.2454 79.4199 26.5918V32.5H76.8955V20.6084H78.8613L79.2158 22.2197H79.3555C79.6133 21.8044 79.932 21.4642 80.3115 21.1992C80.6982 20.9271 81.1279 20.723 81.6006 20.5869C82.0804 20.4508 82.5781 20.3828 83.0938 20.3828Z" fill="#020202"/>
</g>
<rect x="1" y="1.5" width="136" height="44" rx="9" stroke="black" stroke-width="2"/>
<defs>
<clipPath id="clip0_90_615">
<rect x="2" y="2.5" width="134" height="42" rx="8" fill="white"/>
</clipPath>
</defs>
</svg>
