<svg width="83" height="31" viewBox="0 0 83 31" fill="none" xmlns="http://www.w3.org/2000/svg">
<g filter="url(#filter0_d_37_1641)">
<rect width="83" height="27" rx="8" fill="white"/>
<path d="M32.1216 7.436V14.926H33.2836V7.436H32.1216ZM28.9016 10.628V11.58H32.4016V10.628H28.9016ZM23.4556 8.388V14.002H29.2376V8.388H23.4556ZM28.0896 9.326V13.064H24.5896V9.326H28.0896ZM29.1256 15.304C26.5076 15.304 24.8976 16.186 24.8976 17.698C24.8976 19.196 26.5076 20.078 29.1256 20.078C31.7296 20.078 33.3396 19.196 33.3396 17.698C33.3396 16.186 31.7296 15.304 29.1256 15.304ZM29.1256 16.228C31.0296 16.228 32.1916 16.76 32.1916 17.698C32.1916 18.622 31.0296 19.168 29.1256 19.168C27.2216 19.168 26.0596 18.622 26.0596 17.698C26.0596 16.76 27.2216 16.228 29.1256 16.228ZM37.3005 10.418V11.37H45.8825V10.418H37.3005ZM35.7465 12.728V13.68H47.2265V12.728H35.7465ZM37.3005 7.618V10.88H38.4345V7.618H37.3005ZM37.1745 14.73V15.626H44.6085V16.802H37.2025V19.336H38.3505V17.642H45.7705V14.73H37.1745ZM37.2025 19.014V19.924H46.1905V19.014H37.2025ZM40.9125 10.978V13.246H42.0465V10.978H40.9125ZM51.7615 9.242V11.3C51.7615 13.442 50.2355 15.85 48.4295 16.732L49.1015 17.656C51.0755 16.648 52.6855 13.932 52.6855 11.3V9.242H51.7615ZM51.9715 9.242V11.3C51.9715 13.806 53.4975 16.354 55.4995 17.348L56.1575 16.424C54.3235 15.556 52.8955 13.302 52.8955 11.3V9.242H51.9715ZM48.8775 8.724V9.704H55.6955V8.724H48.8775ZM57.1935 7.436V20.092H58.3695V7.436H57.1935ZM58.0895 12.546V13.526H60.4415V12.546H58.0895Z" fill="#333333"/>
<rect x="1" y="1" width="81" height="25" rx="7" stroke="#333333" stroke-width="2"/>
</g>
<defs>
<filter id="filter0_d_37_1641" x="0" y="0" width="83" height="31" filterUnits="userSpaceOnUse" color-interpolation-filters="sRGB">
<feFlood flood-opacity="0" result="BackgroundImageFix"/>
<feColorMatrix in="SourceAlpha" type="matrix" values="0 0 0 0 0 0 0 0 0 0 0 0 0 0 0 0 0 0 127 0" result="hardAlpha"/>
<feOffset dy="4"/>
<feComposite in2="hardAlpha" operator="out"/>
<feColorMatrix type="matrix" values="0 0 0 0 0.2 0 0 0 0 0.2 0 0 0 0 0.2 0 0 0 0.16 0"/>
<feBlend mode="normal" in2="BackgroundImageFix" result="effect1_dropShadow_37_1641"/>
<feBlend mode="normal" in="SourceGraphic" in2="effect1_dropShadow_37_1641" result="shape"/>
</filter>
</defs>
</svg>
