<svg width="21" height="18" viewBox="0 0 21 18" fill="none" xmlns="http://www.w3.org/2000/svg">
<path d="M3.00024 18C3.79589 18 4.55895 17.6839 5.12156 17.1213C5.68417 16.5587 6.00024 15.7956 6.00024 15L6.00024 3C6.00024 2.20435 5.68417 1.44129 5.12156 0.878679C4.55895 0.31607 3.79589 0 3.00024 0C2.20459 0 1.44153 0.31607 0.878918 0.878679C0.316309 1.44129 0.000238419 2.20435 0.000238419 3L0.000238419 15C0.000238419 15.7956 0.316309 16.5587 0.878918 17.1213C1.44153 17.6839 2.20459 18 3.00024 18ZM2.00024 3C2.00024 2.73478 2.10559 2.48043 2.29313 2.29289C2.48067 2.10536 2.73502 2 3.00024 2C3.26545 2 3.51981 2.10536 3.70735 2.29289C3.89488 2.48043 4.00024 2.73478 4.00024 3L4.00024 15C4.00024 15.2652 3.89488 15.5196 3.70735 15.7071C3.51981 15.8946 3.26545 16 3.00024 16C2.73502 16 2.48067 15.8946 2.29313 15.7071C2.10559 15.5196 2.00024 15.2652 2.00024 15L2.00024 3ZM9.37024 15.37C9.77021 15.6057 10.226 15.73 10.6902 15.73C11.1545 15.73 11.6103 15.6057 12.0102 15.37L18.6802 11.37C19.0838 11.1247 19.4174 10.7797 19.6489 10.3681C19.8803 9.9565 20.002 9.49223 20.002 9.02C20.002 8.54777 19.8803 8.0835 19.6489 7.67191C19.4174 7.26031 19.0838 6.91526 18.6802 6.67L12.0102 2.67C11.6113 2.43122 11.1551 2.30511 10.6902 2.30511C10.2253 2.30511 9.76914 2.43122 9.37024 2.67C8.95994 2.90681 8.61805 3.24595 8.37794 3.65431C8.13783 4.06268 8.00769 4.52633 8.00024 5L8.00024 13C8.00075 13.4805 8.1276 13.9524 8.36806 14.3684C8.60852 14.7843 8.95413 15.1298 9.37024 15.37V15.37ZM10.0002 5C9.9973 4.87084 10.0292 4.74326 10.0925 4.63066C10.1559 4.51805 10.2483 4.42457 10.3602 4.36C10.4553 4.30267 10.5642 4.27238 10.6752 4.27238C10.7863 4.27238 10.8952 4.30267 10.9902 4.36L17.6502 8.36C17.7576 8.42875 17.8459 8.5234 17.9071 8.63524C17.9683 8.74708 18.0004 8.87252 18.0004 9C18.0004 9.12748 17.9683 9.25292 17.9071 9.36476C17.8459 9.4766 17.7576 9.57125 17.6502 9.64L10.9902 13.64C10.8936 13.6981 10.783 13.7292 10.6702 13.73C10.5618 13.73 10.4551 13.7025 10.3602 13.65C10.2468 13.5846 10.1533 13.4896 10.0899 13.375C10.0265 13.2605 9.99548 13.1308 10.0002 13L10.0002 5Z" fill="#333333"/>
</svg>
