<svg width="43" height="70" viewBox="0 0 43 70" fill="none" xmlns="http://www.w3.org/2000/svg">
<g filter="url(#filter0_d_62_1015)">
<path d="M7.46796 32.8244L28.5098 55.8128C28.9712 56.321 29.5201 56.7243 30.1248 56.9996C30.7296 57.2748 31.3782 57.4166 32.0334 57.4166C32.6885 57.4166 33.3372 57.2748 33.9419 56.9996C34.5467 56.7243 35.0955 56.321 35.5569 55.8128C36.4812 54.797 37 53.4228 37 51.9904C37 50.5581 36.4812 49.1839 35.5569 48.1681L17.9889 28.9749L35.5569 9.78171C36.4812 8.76587 37 7.3917 37 5.95934C37 4.52697 36.4812 3.15281 35.5569 2.13697C35.0932 1.63447 34.5432 1.23692 33.9386 0.967102C33.3339 0.697289 32.6865 0.560524 32.0334 0.564648C31.3802 0.560524 30.7328 0.697289 30.1281 0.967102C29.5235 1.23692 28.9736 1.63447 28.5098 2.13697L7.46796 25.1254C7.00282 25.6294 6.63362 26.2291 6.38167 26.8898C6.12972 27.5505 6 28.2591 6 28.9749C6 29.6906 6.12972 30.3993 6.38167 31.06C6.63362 31.7207 7.00282 32.3203 7.46796 32.8244Z" fill="#746C6C"/>
</g>
<defs>
<filter id="filter0_d_62_1015" x="0" y="0.56456" width="43" height="68.852" filterUnits="userSpaceOnUse" color-interpolation-filters="sRGB">
<feFlood flood-opacity="0" result="BackgroundImageFix"/>
<feColorMatrix in="SourceAlpha" type="matrix" values="0 0 0 0 0 0 0 0 0 0 0 0 0 0 0 0 0 0 127 0" result="hardAlpha"/>
<feOffset dy="6"/>
<feGaussianBlur stdDeviation="3"/>
<feComposite in2="hardAlpha" operator="out"/>
<feColorMatrix type="matrix" values="0 0 0 0 0 0 0 0 0 0 0 0 0 0 0 0 0 0 0.25 0"/>
<feBlend mode="normal" in2="BackgroundImageFix" result="effect1_dropShadow_62_1015"/>
<feBlend mode="normal" in="SourceGraphic" in2="effect1_dropShadow_62_1015" result="shape"/>
</filter>
</defs>
</svg>
