<svg width="38" height="38" viewBox="0 0 38 38" fill="none" xmlns="http://www.w3.org/2000/svg">
<g filter="url(#filter0_d_626_1127)">
<path d="M19 0C10.7174 0 4 6.46501 4 14.4365C4 17.6275 5.07848 20.5813 6.90264 22.9715L4 30L12.4922 27.4496C14.4581 28.363 16.6643 28.8731 19 28.8731C27.2827 28.8731 34 22.4081 34 14.4365C34 6.46501 27.2827 0 19 0V0Z" fill="#FFD261"/>
<path d="M4 29.9644L12.3813 27.4555C14.3595 28.3689 16.5781 28.885 18.9199 28.885C27.2457 28.885 34 22.4081 34 14.4128C34 10.7296 32.5641 7.37251 30.2038 4.81616L4 29.9644Z" fill="#FEBC38"/>
<path d="M17.4283 16.5125L14.0943 19.7213C13.6567 20.1424 12.3256 20.1424 11.4998 19.3536L11.4566 19.312C10.637 18.5232 10.637 17.2421 11.4566 16.4473L15.6719 12.3903C15.7212 12.3429 15.7644 12.3014 15.8137 12.2658C16.6333 11.6074 17.872 11.7794 18.5561 12.5683L20.2755 14.5552C20.3802 14.6798 20.5898 14.6086 20.5959 14.4485C20.6206 13.6655 20.5035 12.0167 19.1539 11.0499L18.969 10.9135C17.4838 9.9704 15.4624 10.1305 14.1559 11.3939L10.4151 14.9941C8.91761 16.4354 8.91761 18.7723 10.4151 20.2136L10.5939 20.3856C12.0914 21.8269 14.5195 21.8269 16.017 20.3856L18.8457 17.6632C18.9875 17.5267 18.9751 17.2954 18.8211 17.1709C18.7101 17.0819 18.6054 16.9929 18.5191 16.9099L18.3404 16.7379C18.2603 16.6608 18.1925 16.5896 18.1247 16.5184C17.9336 16.3227 17.6132 16.3168 17.416 16.5066L14.464 19.3476C13.6444 20.1365 12.3133 20.1365 11.4875 19.3476L11.4443 19.3061C10.6247 18.5173 10.6247 17.2361 11.4443 16.4413L15.6596 12.3844" stroke="white" stroke-width="1.2" stroke-miterlimit="10"/>
<path d="M23.9855 8.55867C24.8052 7.76982 26.1363 7.76982 26.9621 8.55867L26.9806 8.57646C27.8125 9.37717 27.8125 10.6761 26.9806 11.4768L22.7838 15.516C22.149 16.1269 21.1568 15.8481 20.6145 15.688C20.6145 15.688 19.6778 15.3973 19.4929 14.822C19.4374 14.65 19.3696 14.4899 19.2526 14.3534L18.2172 13.1672C18.1001 13.0308 17.866 13.0782 17.8228 13.2562C17.6379 13.9383 17.5455 15.4448 19.61 16.8623C21.0952 17.8054 23.0303 17.8232 24.3368 16.5658L28.059 12.9833C29.5689 11.5302 29.5689 9.17551 28.059 7.72237L27.9173 7.58595C26.4075 6.13281 23.9609 6.13281 22.451 7.58595L19.6347 10.2965C19.6347 10.2965 19.6223 10.3262 19.6347 10.338C19.838 10.4685 20.0352 10.6227 20.214 10.7947L20.3927 10.9667C20.5714 11.1387 20.7255 11.3226 20.861 11.5124C20.8734 11.5243 20.8918 11.5302 20.9042 11.5124L23.9547 8.57646C24.7867 7.77575 26.1363 7.77575 26.9683 8.57646C27.8002 9.37717 27.8002 10.6761 26.9683 11.4768L22.7715 15.516" stroke="white" stroke-width="1.2" stroke-miterlimit="10"/>
<path d="M12.6893 8.89077C12.5722 9.00347 12.6338 9.21106 12.7509 9.32375C12.868 9.43644 13.0652 9.43644 13.1823 9.32375C13.2994 9.21106 13.2994 9.02126 13.1823 8.90857L14.2423 7.8884C14.2423 7.8884 14.2608 7.91806 14.2731 7.92992C14.3902 8.04261 14.5874 8.04261 14.7045 7.92992C14.8216 7.81723 14.8216 7.62743 14.7045 7.51474C14.5874 7.40204 14.3779 7.28935 14.2608 7.40798" stroke="white" stroke-width="0.5" stroke-linecap="round" stroke-linejoin="round"/>
<path d="M14.2544 7.41389C14.3715 7.3012 14.2976 7.06988 14.1805 6.95126C14.0634 6.83264 13.8662 6.83857 13.7491 6.95126C13.632 7.06395 13.632 7.25375 13.7491 7.36644C13.7799 7.3961 13.8231 7.41982 13.8662 7.43169L12.7323 8.52303C12.7199 8.48151 12.6953 8.44592 12.6645 8.41034C12.5474 8.29764 12.3502 8.29764 12.2331 8.41034C12.116 8.52303 12.116 8.71283 12.2331 8.82552C12.3502 8.93821 12.572 9.00345 12.6891 8.89076" stroke="white" stroke-width="0.5" stroke-linecap="round" stroke-linejoin="round"/>
<path d="M25.175 19.84L25.5448 20.0238L25.7358 19.6739L25.366 19.49L25.2243 19.7569L23.9424 19.1104L24.0903 18.8435L23.7206 18.6597L23.5295 19.0096L23.8931 19.1935L23.6959 19.5612L24.9778 20.2077L25.175 19.84Z" stroke="white" stroke-width="0.4" stroke-miterlimit="10"/>
<path d="M24.9921 20.2179L24.8003 20.5698L25.1659 20.7544L25.3577 20.4025L24.9921 20.2179Z" stroke="white" stroke-width="0.4" stroke-miterlimit="10"/>
<path d="M23.3467 19.39L23.1549 19.7419L23.5206 19.9265L23.7124 19.5746L23.3467 19.39Z" stroke="white" stroke-width="0.4" stroke-miterlimit="10"/>
<path d="M16.726 22.1234C16.9881 22.1234 17.2005 21.9189 17.2005 21.6667C17.2005 21.4144 16.9881 21.21 16.726 21.21C16.4639 21.21 16.2515 21.4144 16.2515 21.6667C16.2515 21.9189 16.4639 22.1234 16.726 22.1234Z" fill="white"/>
<path d="M17.4852 22.6117C17.5932 22.5634 17.6261 22.411 17.5587 22.2714C17.4913 22.1318 17.349 22.0578 17.241 22.1061C17.133 22.1544 17.1001 22.3068 17.1675 22.4464C17.2349 22.586 17.3772 22.66 17.4852 22.6117Z" fill="white"/>
<path d="M16.8079 22.5767C16.8139 22.4294 16.7223 22.3064 16.6033 22.3019C16.4842 22.2974 16.3829 22.4131 16.3769 22.5604C16.3708 22.7077 16.4625 22.8308 16.5815 22.8353C16.7005 22.8398 16.8019 22.724 16.8079 22.5767Z" fill="white"/>
<path d="M16.0362 22.2341C16.1286 22.1335 16.1313 21.9904 16.0421 21.9144C15.9528 21.8384 15.8055 21.8584 15.7131 21.959C15.6206 22.0596 15.618 22.2027 15.7072 22.2787C15.7964 22.3546 15.9437 22.3347 16.0362 22.2341Z" fill="white"/>
<path d="M21.0334 7.30134C21.2954 7.30134 21.5079 7.09687 21.5079 6.84464C21.5079 6.59241 21.2954 6.38794 21.0334 6.38794C20.7713 6.38794 20.5588 6.59241 20.5588 6.84464C20.5588 7.09687 20.7713 7.30134 21.0334 7.30134Z" fill="white"/>
<path d="M20.5228 6.41759C20.6308 6.36927 20.6637 6.21691 20.5963 6.0773C20.5289 5.93768 20.3866 5.86368 20.2786 5.91201C20.1706 5.96033 20.1377 6.11269 20.2051 6.2523C20.2725 6.39192 20.4148 6.46592 20.5228 6.41759Z" fill="white"/>
<path d="M21.389 5.95516C21.395 5.80787 21.3034 5.68481 21.1843 5.68031C21.0653 5.6758 20.9639 5.79157 20.9579 5.93886C20.9519 6.08615 21.0435 6.20922 21.1625 6.21372C21.2816 6.21822 21.383 6.10245 21.389 5.95516Z" fill="white"/>
<path d="M22.0501 6.55735C22.1425 6.45676 22.1452 6.31363 22.056 6.23766C21.9667 6.16169 21.8194 6.18165 21.727 6.28224C21.6345 6.38282 21.6319 6.52594 21.7211 6.60191C21.8103 6.67788 21.9576 6.65793 22.0501 6.55735Z" fill="white"/>
<path d="M30.4803 11.3544C30.5497 11.3195 30.5689 11.2229 30.5231 11.1388C30.4774 11.0546 30.3841 11.0147 30.3147 11.0496C30.2453 11.0845 30.2262 11.181 30.2719 11.2652C30.3177 11.3494 30.411 11.3893 30.4803 11.3544Z" fill="white"/>
<path d="M30.7997 10.9406C30.8201 10.8679 30.7594 10.7888 30.6642 10.764C30.5689 10.7392 30.4751 10.778 30.4546 10.8507C30.4342 10.9235 30.4948 11.0025 30.5901 11.0273C30.6854 11.0522 30.7792 11.0133 30.7997 10.9406Z" fill="white"/>
<path d="M30.6261 10.647C30.7076 10.5934 30.7379 10.4995 30.6937 10.4373C30.6495 10.3751 30.5476 10.3681 30.4662 10.4217C30.3847 10.4753 30.3544 10.5692 30.3986 10.6314C30.4428 10.6936 30.5446 10.7006 30.6261 10.647Z" fill="white"/>
<path d="M30.3311 10.8489C30.3667 10.7224 30.3023 10.5956 30.1873 10.5657C30.0723 10.5357 29.9503 10.614 29.9147 10.7405C29.8792 10.867 29.9436 10.9938 30.0585 11.0237C30.1735 11.0536 30.2956 10.9754 30.3311 10.8489Z" fill="white"/>
<path d="M10.0087 13.6833H9.50342V14.1697H10.0087V13.6833Z" stroke="white" stroke-width="0.4" stroke-miterlimit="10"/>
</g>
<defs>
<filter id="filter0_d_626_1127" x="0" y="0" width="38" height="38" filterUnits="userSpaceOnUse" color-interpolation-filters="sRGB">
<feFlood flood-opacity="0" result="BackgroundImageFix"/>
<feColorMatrix in="SourceAlpha" type="matrix" values="0 0 0 0 0 0 0 0 0 0 0 0 0 0 0 0 0 0 127 0" result="hardAlpha"/>
<feOffset dy="4"/>
<feGaussianBlur stdDeviation="2"/>
<feComposite in2="hardAlpha" operator="out"/>
<feColorMatrix type="matrix" values="0 0 0 0 0 0 0 0 0 0 0 0 0 0 0 0 0 0 0.25 0"/>
<feBlend mode="normal" in2="BackgroundImageFix" result="effect1_dropShadow_626_1127"/>
<feBlend mode="normal" in="SourceGraphic" in2="effect1_dropShadow_626_1127" result="shape"/>
</filter>
</defs>
</svg>
