<svg width="33" height="38" viewBox="0 0 33 38" fill="none" xmlns="http://www.w3.org/2000/svg">
<g filter="url(#filter0_d_626_1108)">
<path d="M28.9942 12.738C28.9942 5.22263 22.6103 -0.769585 15.0735 0.0805418C9.31524 0.729944 4.6808 5.47058 4.07253 11.3388C3.75391 14.4146 4.50122 17.2956 5.99582 19.6453C6.74312 20.826 7.68739 21.8709 8.7649 22.7388C10.7867 24.563 14.9461 28.2823 16.0757 29.8291C16.2263 30.0357 16.5102 30.0593 16.6898 29.8763L20.7507 25.7969C21.7413 24.7991 22.842 23.9254 23.8963 22.9926C26.706 20.5131 29 16.9532 29 12.738H28.9942Z" fill="#FFD261"/>
<path d="M16.4928 0.00976562V29.9885C16.5623 29.9708 16.626 29.9413 16.684 29.8882L20.7449 25.8087C21.7355 24.811 22.8536 23.9609 23.8847 23.0045C26.9492 20.1767 28.9884 16.9651 28.9884 12.7499C28.9942 5.7127 23.3981 0.00976562 16.4928 0.00976562Z" fill="#FEBC38"/>
<path d="M10.9635 13.0337C11.6761 12.9559 12.1583 11.9836 12.0405 10.8619C11.9226 9.74013 11.2494 8.89381 10.5369 8.97155C9.82426 9.04929 9.3421 10.0216 9.45992 11.1434C9.57775 12.2651 10.2509 13.1114 10.9635 13.0337Z" fill="white"/>
<path d="M14.0217 10.0834C14.8488 9.99317 15.4086 8.86614 15.2721 7.56611C15.1355 6.26607 14.3543 5.28533 13.5272 5.37556C12.7001 5.46579 12.1402 6.59283 12.2768 7.89286C12.4134 9.19289 13.1946 10.1736 14.0217 10.0834Z" fill="white"/>
<path d="M18.9829 10.4351C19.81 10.3449 20.3698 9.21782 20.2332 7.91779C20.0967 6.61776 19.3155 5.63702 18.4884 5.72725C17.6612 5.81748 17.1014 6.94451 17.238 8.24454C17.3745 9.54458 18.1557 10.5253 18.9829 10.4351Z" fill="white"/>
<path d="M23.5395 11.919C23.6361 10.7952 23.1358 9.83245 22.4218 9.76867C21.7079 9.70488 21.0508 10.5642 20.9541 11.688C20.8574 12.8119 21.3578 13.7746 22.0717 13.8384C22.7857 13.9022 23.4428 13.0428 23.5395 11.919Z" fill="white"/>
<path d="M14.4071 13.4051C14.5519 12.9387 14.7721 12.49 15.1254 12.1653C15.7453 11.5927 16.8807 11.0554 17.7729 12.3188C17.9698 12.5963 18.0741 12.921 18.1726 13.2516C18.329 13.7829 18.8388 14.3851 19.308 14.6626C19.5339 14.7983 19.812 15.0109 20.0495 15.1703C20.4319 15.4241 21.1039 15.8374 21.2197 16.41C21.3761 17.1657 21.0981 17.9332 20.3855 18.1929C19.9568 18.3523 19.3486 18.3996 18.5433 18.0985C17.9293 17.8682 17.292 17.7266 16.6374 17.7207C15.9828 17.7148 15.2355 17.7502 14.6794 17.8978C14.0016 18.0749 13.2833 18.0867 12.6402 17.8151C11.9393 17.514 11.3194 16.9414 11.6786 15.8551C11.6786 15.8551 11.8234 15.0581 12.9415 14.7334C13.5555 14.5563 14.1001 14.1548 14.3492 13.5586C14.3723 13.5054 14.3897 13.4523 14.4071 13.3992V13.4051Z" fill="white"/>
</g>
<defs>
<filter id="filter0_d_626_1108" x="0" y="0" width="33" height="38" filterUnits="userSpaceOnUse" color-interpolation-filters="sRGB">
<feFlood flood-opacity="0" result="BackgroundImageFix"/>
<feColorMatrix in="SourceAlpha" type="matrix" values="0 0 0 0 0 0 0 0 0 0 0 0 0 0 0 0 0 0 127 0" result="hardAlpha"/>
<feOffset dy="4"/>
<feGaussianBlur stdDeviation="2"/>
<feComposite in2="hardAlpha" operator="out"/>
<feColorMatrix type="matrix" values="0 0 0 0 0 0 0 0 0 0 0 0 0 0 0 0 0 0 0.25 0"/>
<feBlend mode="normal" in2="BackgroundImageFix" result="effect1_dropShadow_626_1108"/>
<feBlend mode="normal" in="SourceGraphic" in2="effect1_dropShadow_626_1108" result="shape"/>
</filter>
</defs>
</svg>
