<svg width="39" height="40" viewBox="0 0 39 40" fill="none" xmlns="http://www.w3.org/2000/svg">
<g filter="url(#filter0_d_626_1158)">
<path d="M19.5 31.9999C28.0604 31.9999 35 29.6692 35 26.7941C35 23.9191 28.0604 21.5884 19.5 21.5884C10.9396 21.5884 4 23.9191 4 26.7941C4 29.6692 10.9396 31.9999 19.5 31.9999Z" fill="#FFDD92"/>
<path d="M19.5002 26.6587C21.4431 26.6587 23.0182 26.1288 23.0182 25.4751C23.0182 24.8214 21.4431 24.2915 19.5002 24.2915C17.5572 24.2915 15.9822 24.8214 15.9822 25.4751C15.9822 26.1288 17.5572 26.6587 19.5002 26.6587Z" stroke="#FBAD18" stroke-miterlimit="10"/>
<path d="M30.8612 10.8209C30.8612 4.4416 25.16 -0.653822 18.4292 0.0683634C13.2866 0.620033 9.15297 4.64722 8.60457 9.63231C8.32002 12.2452 8.98742 14.6926 10.3222 16.6887C10.9896 17.6917 11.8329 18.5794 12.7951 19.3166C14.6007 20.8663 18.3153 24.0259 19.3242 25.3398C19.4587 25.5154 19.7122 25.5354 19.8726 25.38L23.4993 21.9145C24.3839 21.0669 25.3669 20.3247 26.3085 19.5323C28.8177 17.4259 30.8664 14.4017 30.8664 10.8209H30.8612Z" fill="#FFD261"/>
<path d="M19.6965 0.103271V25.5703C19.7586 25.5553 19.8155 25.5302 19.8672 25.4851L23.4939 22.0196C24.3786 21.172 25.3771 20.4499 26.298 19.6374C29.0348 17.2351 30.8559 14.5069 30.8559 10.926C30.8559 4.94793 25.8582 0.108287 19.6965 0.108287V0.103271Z" fill="#FEBC38"/>
<path d="M17.8758 12.6413L15.0769 15.3545C14.7096 15.7106 13.5921 15.7106 12.8988 15.0436L12.8626 15.0085C12.1745 14.3415 12.1745 13.2582 12.8626 12.5862L16.4014 9.15578C16.4427 9.11565 16.479 9.08055 16.5203 9.05046C17.2084 8.49377 18.2483 8.63921 18.8226 9.30623L20.266 10.9863C20.3539 11.0916 20.5299 11.0315 20.535 10.896C20.5557 10.234 20.4574 8.83982 19.3244 8.02235L19.1692 7.907C17.9224 7.10958 16.2254 7.24499 15.1287 8.31323L11.9883 11.3574C10.7311 12.5761 10.7311 14.5521 11.9883 15.7708L12.1383 15.9162C13.3955 17.1349 15.4339 17.1349 16.6911 15.9162L19.0657 13.6143C19.1847 13.4989 19.1744 13.3033 19.045 13.198C18.9519 13.1228 18.864 13.0476 18.7915 12.9773L18.6415 12.8319C18.5742 12.7667 18.5173 12.7065 18.4604 12.6463C18.3 12.4808 18.031 12.4758 17.8655 12.6363L15.3873 15.0386C14.6992 15.7056 13.5817 15.7056 12.8885 15.0386L12.8523 15.0035C12.1642 14.3365 12.1642 13.2532 12.8523 12.5811L16.391 9.15076" stroke="white" stroke-width="1.2" stroke-miterlimit="10"/>
<path d="M23.3803 5.91102C24.0684 5.244 25.1859 5.244 25.8791 5.91102L25.8946 5.92607C26.5931 6.60312 26.5931 7.70144 25.8946 8.37849L22.3714 11.7938C21.8385 12.3104 21.0056 12.0747 20.5503 11.9393C20.5503 11.9393 19.7639 11.6935 19.6087 11.207C19.5622 11.0616 19.5053 10.9262 19.407 10.8108L18.5378 9.80781C18.4395 9.69246 18.2429 9.73259 18.2067 9.88304C18.0515 10.4598 17.9739 11.7336 19.707 12.9323C20.9539 13.7297 22.5784 13.7447 23.6752 12.6815L26.8 9.65234C28.0675 8.42362 28.0675 6.4326 26.8 5.20388L26.681 5.08853C25.4135 3.85981 23.3596 3.85981 22.0921 5.08853L19.7277 7.38047C19.7277 7.38047 19.7174 7.40554 19.7277 7.41557C19.8985 7.52591 20.064 7.6563 20.2141 7.80174L20.3641 7.94718C20.5141 8.09262 20.6435 8.24809 20.7573 8.40858C20.7676 8.41861 20.7831 8.42362 20.7935 8.40858L23.3544 5.92607C24.0528 5.24902 25.1858 5.24902 25.8843 5.92607C26.5827 6.60312 26.5827 7.70144 25.8843 8.37849L22.3611 11.7938" stroke="white" stroke-width="1.2" stroke-miterlimit="10"/>
<path d="M20.3177 26.1375C20.5291 26.1375 20.7005 25.9714 20.7005 25.7664C20.7005 25.5614 20.5291 25.3953 20.3177 25.3953C20.1062 25.3953 19.9348 25.5614 19.9348 25.7664C19.9348 25.9714 20.1062 26.1375 20.3177 26.1375Z" fill="white"/>
<path d="M20.4737 25.0838C20.4826 24.9734 20.4136 24.878 20.3196 24.8709C20.2256 24.8638 20.1422 24.9476 20.1333 25.0581C20.1244 25.1685 20.1934 25.2638 20.2874 25.2709C20.3814 25.278 20.4648 25.1943 20.4737 25.0838Z" fill="white"/>
<path d="M20.9795 25.3971C21.0671 25.326 21.089 25.2115 21.0285 25.1415C20.9679 25.0714 20.8478 25.0723 20.7602 25.1434C20.6726 25.2145 20.6506 25.329 20.7112 25.3991C20.7717 25.4692 20.8919 25.4683 20.9795 25.3971Z" fill="white"/>
<path d="M20.9709 25.962C21.0847 25.9524 21.1704 25.8708 21.1622 25.7798C21.1541 25.6887 21.0551 25.6227 20.9413 25.6323C20.8274 25.6419 20.7417 25.7235 20.7499 25.8145C20.7581 25.9056 20.857 25.9716 20.9709 25.962Z" fill="white"/>
<path d="M22.3456 23.7752C22.6198 23.7752 22.8422 23.5596 22.8422 23.2937C22.8422 23.0278 22.6198 22.8123 22.3456 22.8123C22.0713 22.8123 21.8489 23.0278 21.8489 23.2937C21.8489 23.5596 22.0713 23.7752 22.3456 23.7752Z" fill="white"/>
<path d="M22.6193 22.4162C22.6358 22.2731 22.5502 22.1463 22.4281 22.1331C22.306 22.1198 22.1936 22.2251 22.1771 22.3683C22.1606 22.5114 22.2462 22.6382 22.3683 22.6514C22.4904 22.6646 22.6028 22.5594 22.6193 22.4162Z" fill="white"/>
<path d="M23.2031 22.8098C23.3201 22.7211 23.3536 22.5731 23.2779 22.4793C23.2022 22.3855 23.0459 22.3814 22.9289 22.4702C22.8119 22.5589 22.7784 22.7069 22.8541 22.8007C22.9298 22.8945 23.0861 22.8986 23.2031 22.8098Z" fill="white"/>
<path d="M23.1869 23.5496C23.3353 23.5419 23.4502 23.4392 23.4437 23.3203C23.4371 23.2014 23.3115 23.1112 23.1632 23.1189C23.0148 23.1266 22.8998 23.2292 22.9064 23.3482C22.913 23.4671 23.0385 23.5573 23.1869 23.5496Z" fill="white"/>
<path d="M17.7616 24.5124C18.0216 24.5124 18.2324 24.308 18.2324 24.056C18.2324 23.8039 18.0216 23.5996 17.7616 23.5996C17.5016 23.5996 17.2908 23.8039 17.2908 24.056C17.2908 24.308 17.5016 24.5124 17.7616 24.5124Z" fill="white"/>
<path d="M16.9171 24.3844C17.059 24.3685 17.1634 24.2663 17.1503 24.1563C17.1371 24.0462 17.0114 23.9699 16.8695 23.9858C16.7276 24.0017 16.6232 24.1039 16.6363 24.2139C16.6495 24.324 16.7752 24.4003 16.9171 24.3844Z" fill="white"/>
<path d="M17.2098 23.6933C17.2817 23.6072 17.25 23.4668 17.139 23.3796C17.0279 23.2925 16.8796 23.2917 16.8077 23.3778C16.7358 23.4639 16.7675 23.6043 16.8785 23.6915C16.9896 23.7786 17.1379 23.7794 17.2098 23.6933Z" fill="white"/>
<path d="M17.7185 23.5502C17.8283 23.5196 17.8854 23.3869 17.8459 23.2538C17.8065 23.1206 17.6854 23.0376 17.5756 23.0681C17.4657 23.0987 17.4087 23.2314 17.4481 23.3645C17.4876 23.4976 17.6086 23.5808 17.7185 23.5502Z" fill="white"/>
<path d="M18.6667 22.2202C19.0696 22.2202 19.3962 21.9036 19.3962 21.513C19.3962 21.1225 19.0696 20.8059 18.6667 20.8059C18.2639 20.8059 17.9373 21.1225 17.9373 21.513C17.9373 21.9036 18.2639 22.2202 18.6667 22.2202Z" fill="white"/>
<path d="M17.7451 21.1932C17.8189 21.034 17.716 20.8341 17.5153 20.7467C17.3147 20.6593 17.0922 20.7174 17.0184 20.8766C16.9446 21.0358 17.0474 21.2357 17.2481 21.3231C17.4488 21.4105 17.6713 21.3524 17.7451 21.1932Z" fill="white"/>
<path d="M18.2305 20.6133C18.3994 20.553 18.4747 20.3419 18.3987 20.1418C18.3227 19.9416 18.1242 19.8282 17.9553 19.8885C17.7864 19.9488 17.711 20.1599 17.787 20.3601C17.863 20.5602 18.0616 20.6736 18.2305 20.6133Z" fill="white"/>
<path d="M19.4599 20.5033C19.516 20.2971 19.4204 20.0938 19.2463 20.0493C19.0722 20.0048 18.8857 20.136 18.8296 20.3422C18.7735 20.5484 18.8691 20.7516 19.0432 20.7961C19.2173 20.8406 19.4038 20.7095 19.4599 20.5033Z" fill="white"/>
<path d="M19.2567 25.4403C19.371 25.4403 19.4637 25.3505 19.4637 25.2397C19.4637 25.1289 19.371 25.0391 19.2567 25.0391C19.1424 25.0391 19.0498 25.1289 19.0498 25.2397C19.0498 25.3505 19.1424 25.4403 19.2567 25.4403Z" fill="white"/>
<path d="M18.9094 25.4545C18.9707 25.4409 19.011 25.3905 18.9995 25.3419C18.988 25.2933 18.9291 25.2649 18.8678 25.2785C18.8065 25.2922 18.7662 25.3426 18.7777 25.3912C18.7892 25.4398 18.8482 25.4682 18.9094 25.4545Z" fill="white"/>
<path d="M18.9943 25.1036C19.0221 25.0617 19.0017 25.001 18.9488 24.9681C18.8959 24.9352 18.8304 24.9426 18.8027 24.9846C18.7749 25.0265 18.7953 25.0872 18.8483 25.1201C18.9012 25.153 18.9666 25.1456 18.9943 25.1036Z" fill="white"/>
<path d="M19.2093 25.011C19.2569 24.9921 19.2761 24.931 19.2522 24.8747C19.2282 24.8183 19.1703 24.788 19.1227 24.807C19.0752 24.8259 19.056 24.887 19.0799 24.9433C19.1038 24.9997 19.1618 25.03 19.2093 25.011Z" fill="white"/>
<path d="M21.1142 24.3968C21.2285 24.3968 21.3211 24.307 21.3211 24.1962C21.3211 24.0854 21.2285 23.9956 21.1142 23.9956C20.9999 23.9956 20.9072 24.0854 20.9072 24.1962C20.9072 24.307 20.9999 24.3968 21.1142 24.3968Z" fill="white"/>
<path d="M21.0604 23.9413C21.1115 23.9356 21.1471 23.8819 21.1399 23.8214C21.1327 23.7608 21.0855 23.7164 21.0344 23.7221C20.9833 23.7278 20.9477 23.7815 20.9549 23.842C20.9621 23.9026 21.0094 23.947 21.0604 23.9413Z" fill="white"/>
<path d="M21.4205 23.9173C21.46 23.87 21.4597 23.8061 21.4197 23.7748C21.3798 23.7434 21.3153 23.7563 21.2757 23.8037C21.2362 23.851 21.2365 23.9148 21.2765 23.9462C21.3164 23.9776 21.3809 23.9647 21.4205 23.9173Z" fill="white"/>
<path d="M21.4845 24.2144C21.5449 24.1976 21.5824 24.1451 21.5682 24.0972C21.554 24.0493 21.4935 24.0241 21.4331 24.0409C21.3727 24.0577 21.3352 24.1101 21.3494 24.1581C21.3636 24.206 21.4241 24.2312 21.4845 24.2144Z" fill="white"/>
<path d="M19.5312 23.8756C19.6455 23.8756 19.7381 23.7858 19.7381 23.675C19.7381 23.5642 19.6455 23.4744 19.5312 23.4744C19.4169 23.4744 19.3242 23.5642 19.3242 23.675C19.3242 23.7858 19.4169 23.8756 19.5312 23.8756Z" fill="white"/>
<path d="M19.2417 23.6225C19.2541 23.5741 19.2148 23.523 19.1538 23.5082C19.0928 23.4935 19.0332 23.5208 19.0208 23.5691C19.0084 23.6175 19.0477 23.6687 19.1087 23.6834C19.1697 23.6981 19.2293 23.6709 19.2417 23.6225Z" fill="white"/>
<path d="M19.3608 23.4456C19.4052 23.4204 19.4153 23.3573 19.3835 23.3048C19.3517 23.2522 19.2899 23.2301 19.2456 23.2553C19.2012 23.2806 19.1911 23.3436 19.2229 23.3962C19.2547 23.4487 19.3165 23.4709 19.3608 23.4456Z" fill="white"/>
<path d="M19.7025 23.3487C19.7075 23.2879 19.67 23.2355 19.6187 23.2315C19.5675 23.2276 19.5219 23.2736 19.5169 23.3343C19.5119 23.3951 19.5494 23.4475 19.6006 23.4515C19.6519 23.4555 19.6975 23.4094 19.7025 23.3487Z" fill="white"/>
<path d="M20.8915 22.7318C21.0058 22.7318 21.0984 22.642 21.0984 22.5312C21.0984 22.4204 21.0058 22.3306 20.8915 22.3306C20.7772 22.3306 20.6846 22.4204 20.6846 22.5312C20.6846 22.642 20.7772 22.7318 20.8915 22.7318Z" fill="white"/>
<path d="M20.8405 22.2816C20.8916 22.2759 20.9272 22.2222 20.92 22.1617C20.9128 22.1012 20.8655 22.0567 20.8144 22.0624C20.7633 22.0681 20.7278 22.1218 20.7349 22.1824C20.7421 22.2429 20.7894 22.2873 20.8405 22.2816Z" fill="white"/>
<path d="M21.1946 22.2533C21.2342 22.2059 21.2339 22.1421 21.1939 22.1107C21.154 22.0793 21.0895 22.0923 21.0499 22.1396C21.0103 22.187 21.0107 22.2508 21.0506 22.2822C21.0906 22.3135 21.1551 22.3006 21.1946 22.2533Z" fill="white"/>
<path d="M21.264 22.5525C21.3245 22.5357 21.3619 22.4833 21.3478 22.4353C21.3336 22.3874 21.2731 22.3622 21.2127 22.379C21.1522 22.3958 21.1148 22.4483 21.129 22.4962C21.1431 22.5441 21.2036 22.5693 21.264 22.5525Z" fill="white"/>
<path d="M17.3735 22.4862C17.4878 22.4862 17.5804 22.3964 17.5804 22.2856C17.5804 22.1748 17.4878 22.085 17.3735 22.085C17.2592 22.085 17.1665 22.1748 17.1665 22.2856C17.1665 22.3964 17.2592 22.4862 17.3735 22.4862Z" fill="white"/>
<path d="M17.0022 22.4422C17.0647 22.4356 17.1109 22.3901 17.1053 22.3405C17.0997 22.2909 17.0445 22.2561 16.982 22.2627C16.9195 22.2693 16.8734 22.3148 16.879 22.3644C16.8846 22.414 16.9397 22.4488 17.0022 22.4422Z" fill="white"/>
<path d="M17.113 22.1048C17.1456 22.0663 17.1326 22.0037 17.084 21.9651C17.0354 21.9264 16.9696 21.9263 16.937 21.9649C16.9044 22.0034 16.9173 22.066 16.9659 22.1046C17.0145 22.1433 17.0804 22.1434 17.113 22.1048Z" fill="white"/>
<path d="M17.3481 22.0338C17.3977 22.0204 17.424 21.9619 17.4071 21.9032C17.3901 21.8445 17.3362 21.8079 17.2867 21.8213C17.2372 21.8348 17.2108 21.8933 17.2277 21.9519C17.2447 22.0106 17.2986 22.0473 17.3481 22.0338Z" fill="white"/>
<path d="M20.4054 21.3829C20.5197 21.3829 20.6124 21.2931 20.6124 21.1823C20.6124 21.0715 20.5197 20.9817 20.4054 20.9817C20.2912 20.9817 20.1985 21.0715 20.1985 21.1823C20.1985 21.2931 20.2912 21.3829 20.4054 21.3829Z" fill="white"/>
<path d="M20.3532 20.9301C20.4043 20.9244 20.4399 20.8707 20.4327 20.8101C20.4255 20.7496 20.3782 20.7052 20.3271 20.7109C20.276 20.7166 20.2404 20.7703 20.2476 20.8308C20.2548 20.8913 20.3021 20.9358 20.3532 20.9301Z" fill="white"/>
<path d="M20.7073 20.9024C20.7469 20.8551 20.7466 20.7912 20.7066 20.7599C20.6667 20.7285 20.6022 20.7414 20.5626 20.7888C20.523 20.8361 20.5234 20.9 20.5633 20.9313C20.6033 20.9627 20.6678 20.9498 20.7073 20.9024Z" fill="white"/>
<path d="M20.7699 21.2066C20.8303 21.1898 20.8678 21.1373 20.8536 21.0894C20.8394 21.0415 20.7789 21.0162 20.7185 21.033C20.6581 21.0499 20.6206 21.1023 20.6348 21.1502C20.649 21.1982 20.7095 21.2234 20.7699 21.2066Z" fill="white"/>
<path d="M22.2989 21.378C22.5732 21.378 22.7956 21.1624 22.7956 20.8965C22.7956 20.6306 22.5732 20.415 22.2989 20.415C22.0246 20.415 21.8022 20.6306 21.8022 20.8965C21.8022 21.1624 22.0246 21.378 22.2989 21.378Z" fill="white"/>
<path d="M22.5729 20.0185C22.5894 19.8753 22.5038 19.7486 22.3817 19.7354C22.2596 19.7221 22.1472 19.8274 22.1307 19.9706C22.1142 20.1137 22.1998 20.2405 22.3219 20.2537C22.444 20.2669 22.5564 20.1616 22.5729 20.0185Z" fill="white"/>
<path d="M23.1657 20.4192C23.2827 20.3305 23.3162 20.1825 23.2405 20.0887C23.1648 19.9949 23.0086 19.9908 22.8915 20.0795C22.7745 20.1683 22.7411 20.3163 22.8168 20.4101C22.8925 20.5039 23.0487 20.508 23.1657 20.4192Z" fill="white"/>
<path d="M23.1432 21.1526C23.2916 21.1449 23.4065 21.0423 23.4 20.9233C23.3934 20.8044 23.2678 20.7142 23.1195 20.7219C22.9711 20.7296 22.8561 20.8323 22.8627 20.9512C22.8693 21.0701 22.9949 21.1603 23.1432 21.1526Z" fill="white"/>
<path d="M15.9872 23.3888C16.1015 23.3888 16.1942 23.2989 16.1942 23.1882C16.1942 23.0774 16.1015 22.9875 15.9872 22.9875C15.8729 22.9875 15.7803 23.0774 15.7803 23.1882C15.7803 23.2989 15.8729 23.3888 15.9872 23.3888Z" fill="white"/>
<path d="M15.7282 23.4966C15.7813 23.464 15.8021 23.4035 15.7747 23.3613C15.7472 23.3192 15.6818 23.3114 15.6287 23.3439C15.5755 23.3765 15.5547 23.437 15.5822 23.4792C15.6097 23.5213 15.675 23.5291 15.7282 23.4966Z" fill="white"/>
<path d="M15.6875 23.1441C15.6994 23.0955 15.6594 23.0449 15.5982 23.0308C15.537 23.0168 15.4778 23.0448 15.466 23.0933C15.4542 23.1418 15.4942 23.1925 15.5553 23.2065C15.6165 23.2206 15.6757 23.1926 15.6875 23.1441Z" fill="white"/>
<path d="M15.8612 22.9855C15.8995 22.9523 15.8967 22.8885 15.8549 22.843C15.8131 22.7976 15.7481 22.7876 15.7097 22.8208C15.6713 22.8539 15.674 22.9177 15.7159 22.9632C15.7577 23.0087 15.8228 23.0187 15.8612 22.9855Z" fill="white"/>
<path d="M22.9147 24.6327C23.029 24.6327 23.1216 24.5428 23.1216 24.4321C23.1216 24.3213 23.029 24.2314 22.9147 24.2314C22.8004 24.2314 22.7078 24.3213 22.7078 24.4321C22.7078 24.5428 22.8004 24.6327 22.9147 24.6327Z" fill="white"/>
<path d="M23.0895 24.0831C23.1044 24.0239 23.076 23.9664 23.026 23.9545C22.9761 23.9427 22.9235 23.9811 22.9086 24.0403C22.8937 24.0995 22.9221 24.157 22.9721 24.1689C23.022 24.1807 23.0746 24.1423 23.0895 24.0831Z" fill="white"/>
<path d="M23.3015 24.2749C23.3555 24.2438 23.3781 24.1839 23.3518 24.141C23.3255 24.0981 23.2605 24.0886 23.2064 24.1197C23.1524 24.1508 23.1298 24.2108 23.1561 24.2536C23.1823 24.2965 23.2474 24.306 23.3015 24.2749Z" fill="white"/>
<path d="M23.3579 24.5065C23.3617 24.4568 23.314 24.4128 23.2513 24.4083C23.1886 24.4037 23.1347 24.4403 23.1309 24.4901C23.127 24.5398 23.1747 24.5838 23.2374 24.5883C23.3001 24.5929 23.354 24.5562 23.3579 24.5065Z" fill="white"/>
<path d="M23.7425 21.9146C23.8568 21.9146 23.9494 21.8248 23.9494 21.714C23.9494 21.6032 23.8568 21.5134 23.7425 21.5134C23.6282 21.5134 23.5355 21.6032 23.5355 21.714C23.5355 21.8248 23.6282 21.9146 23.7425 21.9146Z" fill="white"/>
<path d="M23.9573 21.3864C23.9811 21.33 23.9618 21.269 23.9142 21.2501C23.8666 21.2312 23.8087 21.2616 23.7849 21.318C23.7611 21.3744 23.7804 21.4355 23.828 21.4543C23.8756 21.4732 23.9335 21.4428 23.9573 21.3864Z" fill="white"/>
<path d="M24.1556 21.6488C24.2138 21.6258 24.2453 21.5697 24.2259 21.5236C24.2065 21.4774 24.1436 21.4586 24.0854 21.4816C24.0272 21.5046 23.9957 21.5606 24.0151 21.6068C24.0345 21.653 24.0974 21.6718 24.1556 21.6488Z" fill="white"/>
<path d="M24.2044 21.8616C24.2158 21.813 24.1754 21.7626 24.1141 21.749C24.0528 21.7355 23.9939 21.764 23.9825 21.8126C23.971 21.8612 24.0115 21.9116 24.0728 21.9251C24.1341 21.9386 24.193 21.9102 24.2044 21.8616Z" fill="white"/>
</g>
<defs>
<filter id="filter0_d_626_1158" x="0" y="0" width="39" height="40" filterUnits="userSpaceOnUse" color-interpolation-filters="sRGB">
<feFlood flood-opacity="0" result="BackgroundImageFix"/>
<feColorMatrix in="SourceAlpha" type="matrix" values="0 0 0 0 0 0 0 0 0 0 0 0 0 0 0 0 0 0 127 0" result="hardAlpha"/>
<feOffset dy="4"/>
<feGaussianBlur stdDeviation="2"/>
<feComposite in2="hardAlpha" operator="out"/>
<feColorMatrix type="matrix" values="0 0 0 0 0 0 0 0 0 0 0 0 0 0 0 0 0 0 0.25 0"/>
<feBlend mode="normal" in2="BackgroundImageFix" result="effect1_dropShadow_626_1158"/>
<feBlend mode="normal" in="SourceGraphic" in2="effect1_dropShadow_626_1158" result="shape"/>
</filter>
</defs>
</svg>
