<svg width="138" height="47" viewBox="0 0 138 47" fill="none" xmlns="http://www.w3.org/2000/svg">
<g clip-path="url(#clip0_52_605)">
<rect x="2" y="2.5" width="134" height="42" rx="8" fill="white"/>
<path d="M42.1982 32.5V16.7949H44.7764V30.3086H51.4473V32.5H42.1982ZM64.4346 26.5273C64.4346 27.5156 64.3057 28.3929 64.0479 29.1592C63.79 29.9255 63.4141 30.5736 62.9199 31.1035C62.4258 31.6263 61.8314 32.0273 61.1367 32.3066C60.4421 32.5788 59.6579 32.7148 58.7842 32.7148C57.9678 32.7148 57.2194 32.5788 56.5391 32.3066C55.8587 32.0273 55.2679 31.6263 54.7666 31.1035C54.2725 30.5736 53.8893 29.9255 53.6172 29.1592C53.3451 28.3929 53.209 27.5156 53.209 26.5273C53.209 25.2168 53.4346 24.1068 53.8857 23.1973C54.3441 22.2806 54.9958 21.5824 55.8408 21.1025C56.6859 20.6227 57.6921 20.3828 58.8594 20.3828C59.9551 20.3828 60.9219 20.6227 61.7598 21.1025C62.5977 21.5824 63.2529 22.2806 63.7256 23.1973C64.1982 24.1139 64.4346 25.224 64.4346 26.5273ZM55.8086 26.5273C55.8086 27.3939 55.9124 28.1351 56.1201 28.751C56.335 29.3669 56.6644 29.8395 57.1084 30.1689C57.5524 30.4912 58.1253 30.6523 58.8271 30.6523C59.529 30.6523 60.1019 30.4912 60.5459 30.1689C60.9899 29.8395 61.3158 29.3669 61.5234 28.751C61.7311 28.1351 61.835 27.3939 61.835 26.5273C61.835 25.6608 61.7311 24.9268 61.5234 24.3252C61.3158 23.7165 60.9899 23.2546 60.5459 22.9395C60.1019 22.6172 59.5254 22.4561 58.8164 22.4561C57.7708 22.4561 57.0081 22.807 56.5283 23.5088C56.0485 24.2106 55.8086 25.2168 55.8086 26.5273ZM70.7295 37.7852C69.1182 37.7852 67.8828 37.4951 67.0234 36.915C66.1641 36.335 65.7344 35.5221 65.7344 34.4766C65.7344 33.7461 65.9635 33.1266 66.4219 32.6182C66.8802 32.1169 67.5355 31.7695 68.3877 31.5762C68.0654 31.4329 67.7861 31.2109 67.5498 30.9102C67.3206 30.6022 67.2061 30.262 67.2061 29.8896C67.2061 29.4456 67.3314 29.0661 67.582 28.751C67.8327 28.4359 68.2087 28.1315 68.71 27.8379C68.0869 27.5729 67.5856 27.1432 67.2061 26.5488C66.8337 25.9473 66.6475 25.2419 66.6475 24.4326C66.6475 23.5732 66.8301 22.8428 67.1953 22.2412C67.5605 21.6325 68.0941 21.1706 68.7959 20.8555C69.4977 20.5332 70.3464 20.3721 71.3418 20.3721C71.5566 20.3721 71.7894 20.3864 72.04 20.415C72.2979 20.4365 72.5342 20.4652 72.749 20.501C72.971 20.5296 73.1393 20.5618 73.2539 20.5977H77.3682V22.0049L75.3486 22.3809C75.542 22.653 75.696 22.9645 75.8105 23.3154C75.9251 23.6592 75.9824 24.0352 75.9824 24.4434C75.9824 25.6751 75.5563 26.6455 74.7041 27.3545C73.859 28.0563 72.6917 28.4072 71.2021 28.4072C70.8441 28.3929 70.4967 28.3643 70.1602 28.3213C69.9023 28.4788 69.7054 28.6543 69.5693 28.8477C69.4333 29.0339 69.3652 29.2451 69.3652 29.4814C69.3652 29.6748 69.4333 29.8324 69.5693 29.9541C69.7054 30.0687 69.9059 30.1546 70.1709 30.2119C70.443 30.2692 70.7725 30.2979 71.1592 30.2979H73.2109C74.5143 30.2979 75.5098 30.5736 76.1973 31.125C76.8848 31.6764 77.2285 32.4857 77.2285 33.5527C77.2285 34.9062 76.6699 35.9482 75.5527 36.6787C74.4355 37.4163 72.8278 37.7852 70.7295 37.7852ZM70.8262 36.0127C71.707 36.0127 72.4482 35.9268 73.0498 35.7549C73.6514 35.583 74.1061 35.3359 74.4141 35.0137C74.722 34.6986 74.876 34.3226 74.876 33.8857C74.876 33.499 74.7793 33.2018 74.5859 32.9941C74.3926 32.7865 74.1025 32.6432 73.7158 32.5645C73.3291 32.4857 72.8493 32.4463 72.2764 32.4463H70.4072C69.9417 32.4463 69.5299 32.5179 69.1719 32.6611C68.8138 32.8115 68.5345 33.0264 68.334 33.3057C68.1406 33.585 68.0439 33.9215 68.0439 34.3154C68.0439 34.8597 68.2839 35.2786 68.7637 35.5723C69.2507 35.8659 69.9382 36.0127 70.8262 36.0127ZM71.3203 26.7529C72.0579 26.7529 72.6058 26.5524 72.9639 26.1514C73.3219 25.7432 73.501 25.1702 73.501 24.4326C73.501 23.6305 73.3148 23.029 72.9424 22.6279C72.5771 22.2269 72.0329 22.0264 71.3096 22.0264C70.6006 22.0264 70.0599 22.2305 69.6875 22.6387C69.3223 23.0469 69.1396 23.652 69.1396 24.4541C69.1396 25.1774 69.3223 25.7432 69.6875 26.1514C70.0599 26.5524 70.6042 26.7529 71.3203 26.7529ZM82.0625 20.6084V32.5H79.5381V20.6084H82.0625ZM80.8164 16.0537C81.2031 16.0537 81.5361 16.1576 81.8154 16.3652C82.1019 16.5729 82.2451 16.931 82.2451 17.4395C82.2451 17.9408 82.1019 18.2988 81.8154 18.5137C81.5361 18.7214 81.2031 18.8252 80.8164 18.8252C80.4154 18.8252 80.0752 18.7214 79.7959 18.5137C79.5238 18.2988 79.3877 17.9408 79.3877 17.4395C79.3877 16.931 79.5238 16.5729 79.7959 16.3652C80.0752 16.1576 80.4154 16.0537 80.8164 16.0537ZM91.8809 20.3828C93.2201 20.3828 94.262 20.7301 95.0068 21.4248C95.7588 22.1123 96.1348 23.2188 96.1348 24.7441V32.5H93.6104V25.2168C93.6104 24.293 93.4206 23.6019 93.041 23.1436C92.6615 22.6781 92.0742 22.4453 91.2793 22.4453C90.1263 22.4453 89.3242 22.7998 88.873 23.5088C88.429 24.2178 88.207 25.2454 88.207 26.5918V32.5H85.6826V20.6084H87.6484L88.0029 22.2197H88.1426C88.4004 21.8044 88.7191 21.4642 89.0986 21.1992C89.4854 20.9271 89.915 20.723 90.3877 20.5869C90.8675 20.4508 91.3652 20.3828 91.8809 20.3828Z" fill="#020202"/>
</g>
<rect x="1" y="1.5" width="136" height="44" rx="9" stroke="black" stroke-width="2"/>
<defs>
<clipPath id="clip0_52_605">
<rect x="2" y="2.5" width="134" height="42" rx="8" fill="white"/>
</clipPath>
</defs>
</svg>
