<svg width="75" height="41" viewBox="0 0 75 41" fill="none" xmlns="http://www.w3.org/2000/svg">
<rect x="0.75" y="1.25" width="73.5" height="38.5" rx="4.25" fill="#FC8884"/>
<path d="M8.7025 20.02V21.7H22.0945V20.02H8.7025ZM15.3745 22.5C12.1585 22.5 10.2225 23.476 10.2225 25.22C10.2225 26.964 12.1585 27.94 15.3745 27.94C18.5745 27.94 20.5105 26.964 20.5105 25.22C20.5105 23.476 18.5745 22.5 15.3745 22.5ZM15.3745 24.116C17.3585 24.116 18.3665 24.468 18.3665 25.22C18.3665 25.988 17.3585 26.324 15.3745 26.324C13.3905 26.324 12.3825 25.988 12.3825 25.22C12.3825 24.468 13.3905 24.116 15.3745 24.116ZM15.4065 13.412C12.1425 13.412 10.0465 14.532 10.0465 16.324C10.0465 18.132 12.1425 19.236 15.4065 19.236C18.6545 19.236 20.7665 18.132 20.7665 16.324C20.7665 14.532 18.6545 13.412 15.4065 13.412ZM15.4065 15.06C17.4225 15.06 18.5745 15.476 18.5745 16.324C18.5745 17.188 17.4225 17.588 15.4065 17.588C13.3745 17.588 12.2385 17.188 12.2385 16.324C12.2385 15.476 13.3745 15.06 15.4065 15.06ZM25.0213 21.54V27.764H35.2293V21.54H33.1173V23.092H27.1173V21.54H25.0213ZM27.1173 24.724H33.1173V26.068H27.1173V24.724ZM25.0693 13.7V15.396H34.4613V13.7H25.0693ZM23.4373 18.884V20.596H36.8453V18.884H23.4373ZM33.1813 13.7V14.884C33.1813 16.132 33.1813 17.492 32.7173 19.396L34.8613 19.252C35.2773 17.396 35.2773 16.116 35.2773 14.884V13.7H33.1813ZM38.652 19.444V21.156H39.676C41.884 21.156 43.34 21.092 45.02 20.756L44.844 19.06C43.228 19.396 41.82 19.444 39.676 19.444H38.652ZM38.652 14.132V20.308H40.748V15.828H44.3V14.132H38.652ZM48.748 13.108V22.052H50.78V13.108H48.748ZM46.972 16.66V18.372H49.324V16.66H46.972ZM45.58 13.38V21.604H47.564V13.38H45.58ZM45.74 22.164C42.588 22.164 40.652 23.236 40.652 25.044C40.652 26.868 42.588 27.924 45.74 27.924C48.892 27.924 50.844 26.868 50.844 25.044C50.844 23.236 48.892 22.164 45.74 22.164ZM45.74 23.812C47.692 23.812 48.7 24.196 48.7 25.044C48.7 25.876 47.692 26.276 45.74 26.276C43.788 26.276 42.764 25.876 42.764 25.044C42.764 24.196 43.788 23.812 45.74 23.812ZM53.3708 19.444V21.156H54.3948C56.6028 21.156 58.0588 21.092 59.7388 20.756L59.5628 19.06C57.9468 19.396 56.5388 19.444 54.3948 19.444H53.3708ZM53.3708 14.132V20.308H55.4668V15.828H59.0188V14.132H53.3708ZM63.4668 13.108V22.052H65.4988V13.108H63.4668ZM61.6908 16.66V18.372H64.0428V16.66H61.6908ZM60.2987 13.38V21.604H62.2828V13.38H60.2987ZM60.4588 22.164C57.3068 22.164 55.3708 23.236 55.3708 25.044C55.3708 26.868 57.3068 27.924 60.4588 27.924C63.6108 27.924 65.5628 26.868 65.5628 25.044C65.5628 23.236 63.6108 22.164 60.4588 22.164ZM60.4588 23.812C62.4108 23.812 63.4188 24.196 63.4188 25.044C63.4188 25.876 62.4108 26.276 60.4588 26.276C58.5068 26.276 57.4828 25.876 57.4828 25.044C57.4828 24.196 58.5068 23.812 60.4588 23.812Z" fill="white"/>
<rect x="0.75" y="1.25" width="73.5" height="38.5" rx="4.25" stroke="black" stroke-width="1.5"/>
</svg>
