<svg width="38" height="38" viewBox="0 0 38 38" fill="none" xmlns="http://www.w3.org/2000/svg">
<g filter="url(#filter0_d_626_1118)">
<path d="M19 0C10.7153 0 4 6.46318 4 14.4368C4 17.6274 5.0789 20.579 6.90323 22.9704L4 30L12.4939 27.4512C14.4621 28.3638 16.6657 28.8735 19 28.8735C27.2847 28.8735 34 22.4103 34 14.4368C34 6.46318 27.2847 0 19 0Z" fill="#FFD261"/>
<path d="M19 0V28.8735C27.2847 28.8735 34 22.4103 34 14.4368C34 6.46318 27.2847 0 19 0Z" fill="#FEBC38"/>
<path d="M13.7233 10.5159L14.3576 11.8753C14.6584 12.5172 14.6388 13.2661 14.2922 13.8891L14.2726 13.9206C13.8214 14.7199 13.8933 15.689 14.423 16.4379C15.1684 17.4952 16.2669 18.7538 17.5551 19.3139C18.3986 19.6789 19.3925 19.4272 19.9875 18.7475L21.0468 17.5392C21.0468 17.5392 21.681 16.8092 23.6296 18.2944C25.0158 19.3517 24.957 21.3718 23.5511 22.4102C22.3284 23.3165 20.0398 23.4801 15.7438 20.7488C14.9592 20.2516 14.2268 19.6789 13.5468 19.0559C11.1471 16.8596 6.31489 11.6802 11.5982 9.66636C12.4221 9.35169 13.3506 9.74188 13.7168 10.5159H13.7233Z" fill="white"/>
<path d="M23.3983 14.3579C23.8471 13.1946 23.1021 11.8554 21.7344 11.3667C20.3667 10.8779 18.8941 11.4247 18.4454 12.5879C17.9966 13.7511 18.7416 15.0903 20.1093 15.5791C21.477 16.0678 22.9496 15.5211 23.3983 14.3579Z" fill="white" stroke="white" stroke-miterlimit="10"/>
<path d="M19.4381 9.96861C19.8317 9.96861 20.1508 9.66149 20.1508 9.28265C20.1508 8.9038 19.8317 8.59668 19.4381 8.59668C19.0445 8.59668 18.7253 8.9038 18.7253 9.28265C18.7253 9.66149 19.0445 9.96861 19.4381 9.96861Z" fill="white" stroke="white" stroke-miterlimit="10"/>
<path d="M23.6295 10.2453C24.0231 10.2453 24.3422 9.93823 24.3422 9.55938C24.3422 9.18053 24.0231 8.87341 23.6295 8.87341C23.2358 8.87341 22.9167 9.18053 22.9167 9.55938C22.9167 9.93823 23.2358 10.2453 23.6295 10.2453Z" fill="white" stroke="white" stroke-miterlimit="10"/>
<path d="M26.0096 13.9585C26.4032 13.9585 26.7223 13.6514 26.7223 13.2725C26.7223 12.8937 26.4032 12.5865 26.0096 12.5865C25.616 12.5865 25.2969 12.8937 25.2969 13.2725C25.2969 13.6514 25.616 13.9585 26.0096 13.9585Z" fill="white" stroke="white" stroke-miterlimit="10"/>
</g>
<defs>
<filter id="filter0_d_626_1118" x="0" y="0" width="38" height="38" filterUnits="userSpaceOnUse" color-interpolation-filters="sRGB">
<feFlood flood-opacity="0" result="BackgroundImageFix"/>
<feColorMatrix in="SourceAlpha" type="matrix" values="0 0 0 0 0 0 0 0 0 0 0 0 0 0 0 0 0 0 127 0" result="hardAlpha"/>
<feOffset dy="4"/>
<feGaussianBlur stdDeviation="2"/>
<feComposite in2="hardAlpha" operator="out"/>
<feColorMatrix type="matrix" values="0 0 0 0 0 0 0 0 0 0 0 0 0 0 0 0 0 0 0.25 0"/>
<feBlend mode="normal" in2="BackgroundImageFix" result="effect1_dropShadow_626_1118"/>
<feBlend mode="normal" in="SourceGraphic" in2="effect1_dropShadow_626_1118" result="shape"/>
</filter>
</defs>
</svg>
