<svg width="409" height="58" viewBox="0 0 409 58" fill="none" xmlns="http://www.w3.org/2000/svg">
<rect width="373.004" height="47.058" rx="23.529" transform="matrix(1 0 0 -1 0 53.058)" fill="white"/>
<rect x="1" y="-1" width="371.004" height="45.058" rx="22.529" transform="matrix(1 0 0 -1 0 51.058)" stroke="black" stroke-opacity="0.12" stroke-width="2"/>
<path d="M26.9891 47.1758L31.0287 34.7431L44.1012 34.7431L33.5253 27.0593L37.565 14.6266L26.9891 22.3104L16.4132 14.6266L20.4528 27.0593L9.87697 34.7431L22.9495 34.7431L26.9891 47.1758Z" fill="#EFD133"/>
<path d="M66.5732 47.1758L70.6128 34.7431L83.6853 34.7431L73.1094 27.0593L77.1491 14.6266L66.5732 22.3104L55.9973 14.6266L60.0369 27.0593L49.4611 34.7431L62.5336 34.7431L66.5732 47.1758Z" fill="#EFD133"/>
<path d="M107.956 47.1758L111.996 34.7431L125.069 34.7431L114.493 27.0593L118.532 14.6266L107.956 22.3104L97.3806 14.6266L101.42 27.0593L90.8444 34.7431L103.917 34.7431L107.956 47.1758Z" fill="#EFD133"/>
<path d="M149.34 47.1758L153.38 34.7431L166.452 34.7431L155.876 27.0593L159.916 14.6266L149.34 22.3104L138.764 14.6266L142.804 27.0593L132.228 34.7431L145.3 34.7431L149.34 47.1758Z" fill="#EFD133"/>
<path d="M190.723 47.1758L194.763 34.7431L207.835 34.7431L197.259 27.0593L201.299 14.6266L190.723 22.3104L180.147 14.6266L184.187 27.0593L173.611 34.7431L186.684 34.7431L190.723 47.1758Z" fill="#D8D8D8"/>
<path d="M230.131 28.7273C230.131 26.9375 230.363 25.2921 230.827 23.7912C231.295 22.2855 231.963 20.9006 232.83 19.6364H234.307C233.966 20.1051 233.646 20.6828 233.348 21.3693C233.054 22.0511 232.796 22.8016 232.574 23.6207C232.351 24.4351 232.176 25.2779 232.048 26.1491C231.925 27.0204 231.864 27.8797 231.864 28.7273C231.864 29.8542 231.973 30.9976 232.19 32.1577C232.408 33.3177 232.702 34.3949 233.071 35.3892C233.44 36.3835 233.852 37.1932 234.307 37.8182H232.83C231.963 36.554 231.295 35.1714 230.827 33.6705C230.363 32.1648 230.131 30.517 230.131 28.7273ZM236.752 36V34.7216L241.553 29.4659C242.116 28.8504 242.58 28.3153 242.945 27.8608C243.31 27.4015 243.579 26.9706 243.755 26.5682C243.935 26.161 244.025 25.7348 244.025 25.2898C244.025 24.7784 243.901 24.3357 243.655 23.9616C243.414 23.5876 243.082 23.2988 242.661 23.0952C242.239 22.8916 241.766 22.7898 241.24 22.7898C240.682 22.7898 240.194 22.9058 239.777 23.1378C239.365 23.3651 239.046 23.6847 238.819 24.0966C238.596 24.5085 238.485 24.9915 238.485 25.5455H236.809C236.809 24.6932 237.005 23.9451 237.398 23.3011C237.791 22.6572 238.326 22.1553 239.003 21.7955C239.685 21.4356 240.45 21.2557 241.297 21.2557C242.15 21.2557 242.905 21.4356 243.563 21.7955C244.221 22.1553 244.737 22.6406 245.111 23.2514C245.485 23.8622 245.672 24.5417 245.672 25.2898C245.672 25.8248 245.575 26.348 245.381 26.8594C245.192 27.366 244.86 27.9318 244.387 28.5568C243.918 29.1771 243.267 29.9347 242.434 30.8295L239.167 34.3239V34.4375H245.928V36H236.752ZM253.776 36.1989C252.838 36.1989 252.003 36.0379 251.269 35.7159C250.54 35.3939 249.96 34.9465 249.529 34.3736C249.103 33.7959 248.871 33.1259 248.833 32.3636H250.623C250.66 32.8324 250.821 33.2372 251.105 33.5781C251.39 33.9143 251.761 34.1747 252.221 34.3594C252.68 34.544 253.189 34.6364 253.748 34.6364C254.373 34.6364 254.926 34.5275 255.409 34.3097C255.892 34.0919 256.271 33.7888 256.546 33.4006C256.82 33.0123 256.958 32.5625 256.958 32.0511C256.958 31.5161 256.825 31.045 256.56 30.6378C256.295 30.2259 255.907 29.9039 255.395 29.6719C254.884 29.4399 254.259 29.3239 253.52 29.3239H252.355V27.7614H253.52C254.098 27.7614 254.605 27.6572 255.04 27.4489C255.48 27.2405 255.824 26.947 256.07 26.5682C256.321 26.1894 256.446 25.7443 256.446 25.233C256.446 24.7405 256.337 24.312 256.12 23.9474C255.902 23.5829 255.594 23.2988 255.196 23.0952C254.803 22.8916 254.339 22.7898 253.804 22.7898C253.302 22.7898 252.829 22.8821 252.384 23.0668C251.944 23.2467 251.584 23.5095 251.304 23.8551C251.025 24.196 250.873 24.608 250.85 25.0909H249.145C249.174 24.3286 249.403 23.661 249.834 23.0881C250.265 22.5104 250.828 22.0606 251.525 21.7386C252.225 21.4167 252.995 21.2557 253.833 21.2557C254.732 21.2557 255.504 21.438 256.148 21.8026C256.792 22.1624 257.287 22.6383 257.632 23.2301C257.978 23.822 258.151 24.4612 258.151 25.1477C258.151 25.9669 257.935 26.6652 257.505 27.2429C257.078 27.8205 256.498 28.2206 255.765 28.4432V28.5568C256.683 28.7083 257.4 29.099 257.917 29.7287C258.433 30.3537 258.691 31.1278 258.691 32.0511C258.691 32.8419 258.475 33.5521 258.044 34.1818C257.618 34.8068 257.036 35.2992 256.297 35.6591C255.559 36.0189 254.718 36.1989 253.776 36.1989ZM265.203 28.7273C265.203 30.517 264.969 32.1648 264.5 33.6705C264.036 35.1714 263.371 36.554 262.505 37.8182H261.027C261.368 37.3494 261.685 36.7718 261.979 36.0852C262.277 35.4034 262.538 34.6553 262.76 33.8409C262.983 33.0218 263.156 32.1766 263.279 31.3054C263.407 30.4295 263.471 29.5701 263.471 28.7273C263.471 27.6004 263.362 26.4569 263.144 25.2969C262.926 24.1368 262.632 23.0597 262.263 22.0653C261.894 21.071 261.482 20.2614 261.027 19.6364H262.505C263.371 20.9006 264.036 22.2855 264.5 23.7912C264.969 25.2921 265.203 26.9375 265.203 28.7273ZM272.396 20.98C270.056 20.98 268.556 23.4 268.556 27.28C268.556 31.16 270.056 33.58 272.396 33.58C274.736 33.58 276.256 31.16 276.256 27.28C276.256 23.4 274.736 20.98 272.396 20.98ZM272.396 22.52C273.816 22.52 274.716 24.36 274.716 27.28C274.716 30.2 273.816 32.04 272.396 32.04C270.976 32.04 270.076 30.2 270.076 27.28C270.076 24.36 270.976 22.52 272.396 22.52ZM282.096 19.48V37.56H283.696V19.48H282.096ZM279.236 26.64V28H282.696V26.64H279.236ZM278.096 19.86V36.66H279.676V19.86H278.096ZM299.934 19.48V32.94H301.614V19.48H299.934ZM294.434 20.88V21.58C294.434 25.14 291.474 27.98 287.014 29.44L287.734 30.78C292.854 29.1 296.194 25.56 296.194 20.88H294.434ZM287.914 20.88V22.26H295.454V20.88H287.914ZM295.354 23.2V24.56H300.194V23.2H295.354ZM295.174 27.26V28.62H300.134V27.26H295.174ZM290.174 35.8V37.16H302.054V35.8H290.174ZM290.174 31.64V36.64H291.834V31.64H290.174ZM305.133 28.38V29.74H321.473V28.38H305.133ZM312.473 25.48V28.94H314.113V25.48H312.473ZM307.193 24.96V26.32H319.573V24.96H307.193ZM307.193 20.3V25.76H308.833V21.64H319.433V20.3H307.193ZM313.273 31.04C309.413 31.04 307.073 32.22 307.073 34.28C307.073 36.38 309.413 37.54 313.273 37.54C317.133 37.54 319.473 36.38 319.473 34.28C319.473 32.22 317.133 31.04 313.273 31.04ZM313.273 32.32C316.113 32.32 317.793 33.04 317.793 34.28C317.793 35.54 316.113 36.24 313.273 36.24C310.453 36.24 308.753 35.54 308.753 34.28C308.753 33.04 310.453 32.32 313.273 32.32ZM335.891 19.5V32.76H337.551V19.5H335.891ZM337.031 24.96V26.34H340.231V24.96H337.031ZM326.291 35.8V37.16H338.371V35.8H326.291ZM326.291 31.48V36.12H327.951V31.48H326.291ZM324.271 20.78V29.74H332.631V20.78H331.011V23.8H325.911V20.78H324.271ZM325.911 25.1H331.011V28.4H325.911V25.1Z" fill="#746C6C"/>
</svg>
