<svg width="138" height="47" viewBox="0 0 138 47" fill="none" xmlns="http://www.w3.org/2000/svg">
<g clip-path="url(#clip0_52_607)">
<rect x="2" y="2.5" width="134" height="42" rx="8" fill="white"/>
<path d="M44.9912 28.2246C44.9912 29.1556 44.762 29.9577 44.3037 30.6309C43.8525 31.304 43.2008 31.8197 42.3486 32.1777C41.5036 32.5358 40.4938 32.7148 39.3193 32.7148C38.7464 32.7148 38.1986 32.6826 37.6758 32.6182C37.153 32.5537 36.6589 32.4606 36.1934 32.3389C35.735 32.21 35.3161 32.056 34.9365 31.877V29.4492C35.5739 29.7285 36.2865 29.9827 37.0742 30.2119C37.862 30.4339 38.6641 30.5449 39.4805 30.5449C40.1465 30.5449 40.6979 30.459 41.1348 30.2871C41.5788 30.1081 41.9082 29.8574 42.123 29.5352C42.3379 29.2057 42.4453 28.8226 42.4453 28.3857C42.4453 27.9202 42.32 27.5264 42.0693 27.2041C41.8187 26.8818 41.4391 26.5882 40.9307 26.3232C40.4294 26.0511 39.7992 25.7611 39.04 25.4531C38.5244 25.2454 38.0303 25.0091 37.5576 24.7441C37.0921 24.4792 36.6768 24.1676 36.3115 23.8096C35.9463 23.4515 35.6562 23.029 35.4414 22.542C35.2337 22.0479 35.1299 21.4678 35.1299 20.8018C35.1299 19.9137 35.3411 19.1546 35.7637 18.5244C36.1934 17.8942 36.7949 17.4108 37.5684 17.0742C38.349 16.7376 39.2585 16.5693 40.2969 16.5693C41.1204 16.5693 41.8939 16.6553 42.6172 16.8271C43.3477 16.999 44.0638 17.2425 44.7656 17.5576L43.9492 19.6309C43.3047 19.3659 42.6781 19.1546 42.0693 18.9971C41.4678 18.8395 40.8519 18.7607 40.2217 18.7607C39.6774 18.7607 39.2155 18.8431 38.8359 19.0078C38.4564 19.1725 38.1663 19.4053 37.9658 19.7061C37.7725 19.9997 37.6758 20.3506 37.6758 20.7588C37.6758 21.2171 37.7868 21.6038 38.0088 21.9189C38.238 22.2269 38.5889 22.5098 39.0615 22.7676C39.5413 23.0254 40.1572 23.3118 40.9092 23.627C41.7757 23.985 42.5098 24.361 43.1113 24.7549C43.7201 25.1488 44.1855 25.6214 44.5078 26.1729C44.8301 26.7171 44.9912 27.401 44.9912 28.2246ZM50.2871 20.6084V32.5H47.7627V20.6084H50.2871ZM49.041 16.0537C49.4277 16.0537 49.7607 16.1576 50.04 16.3652C50.3265 16.5729 50.4697 16.931 50.4697 17.4395C50.4697 17.9408 50.3265 18.2988 50.04 18.5137C49.7607 18.7214 49.4277 18.8252 49.041 18.8252C48.64 18.8252 48.2998 18.7214 48.0205 18.5137C47.7484 18.2988 47.6123 17.9408 47.6123 17.4395C47.6123 16.931 47.7484 16.5729 48.0205 16.3652C48.2998 16.1576 48.64 16.0537 49.041 16.0537ZM57.3018 37.7852C55.6904 37.7852 54.4551 37.4951 53.5957 36.915C52.7363 36.335 52.3066 35.5221 52.3066 34.4766C52.3066 33.7461 52.5358 33.1266 52.9941 32.6182C53.4525 32.1169 54.1077 31.7695 54.96 31.5762C54.6377 31.4329 54.3584 31.2109 54.1221 30.9102C53.8929 30.6022 53.7783 30.262 53.7783 29.8896C53.7783 29.4456 53.9036 29.0661 54.1543 28.751C54.4049 28.4359 54.7809 28.1315 55.2822 27.8379C54.6592 27.5729 54.1579 27.1432 53.7783 26.5488C53.4059 25.9473 53.2197 25.2419 53.2197 24.4326C53.2197 23.5732 53.4023 22.8428 53.7676 22.2412C54.1328 21.6325 54.6663 21.1706 55.3682 20.8555C56.07 20.5332 56.9186 20.3721 57.9141 20.3721C58.1289 20.3721 58.3617 20.3864 58.6123 20.415C58.8701 20.4365 59.1064 20.4652 59.3213 20.501C59.5433 20.5296 59.7116 20.5618 59.8262 20.5977H63.9404V22.0049L61.9209 22.3809C62.1143 22.653 62.2682 22.9645 62.3828 23.3154C62.4974 23.6592 62.5547 24.0352 62.5547 24.4434C62.5547 25.6751 62.1286 26.6455 61.2764 27.3545C60.4313 28.0563 59.264 28.4072 57.7744 28.4072C57.4163 28.3929 57.069 28.3643 56.7324 28.3213C56.4746 28.4788 56.2777 28.6543 56.1416 28.8477C56.0055 29.0339 55.9375 29.2451 55.9375 29.4814C55.9375 29.6748 56.0055 29.8324 56.1416 29.9541C56.2777 30.0687 56.4782 30.1546 56.7432 30.2119C57.0153 30.2692 57.3447 30.2979 57.7314 30.2979H59.7832C61.0866 30.2979 62.082 30.5736 62.7695 31.125C63.457 31.6764 63.8008 32.4857 63.8008 33.5527C63.8008 34.9062 63.2422 35.9482 62.125 36.6787C61.0078 37.4163 59.4001 37.7852 57.3018 37.7852ZM57.3984 36.0127C58.2793 36.0127 59.0205 35.9268 59.6221 35.7549C60.2236 35.583 60.6784 35.3359 60.9863 35.0137C61.2943 34.6986 61.4482 34.3226 61.4482 33.8857C61.4482 33.499 61.3516 33.2018 61.1582 32.9941C60.9648 32.7865 60.6748 32.6432 60.2881 32.5645C59.9014 32.4857 59.4215 32.4463 58.8486 32.4463H56.9795C56.514 32.4463 56.1022 32.5179 55.7441 32.6611C55.3861 32.8115 55.1068 33.0264 54.9062 33.3057C54.7129 33.585 54.6162 33.9215 54.6162 34.3154C54.6162 34.8597 54.8561 35.2786 55.3359 35.5723C55.8229 35.8659 56.5104 36.0127 57.3984 36.0127ZM57.8926 26.7529C58.6302 26.7529 59.1781 26.5524 59.5361 26.1514C59.8942 25.7432 60.0732 25.1702 60.0732 24.4326C60.0732 23.6305 59.887 23.029 59.5146 22.6279C59.1494 22.2269 58.6051 22.0264 57.8818 22.0264C57.1729 22.0264 56.6322 22.2305 56.2598 22.6387C55.8945 23.0469 55.7119 23.652 55.7119 24.4541C55.7119 25.1774 55.8945 25.7432 56.2598 26.1514C56.6322 26.5524 57.1764 26.7529 57.8926 26.7529ZM72.3086 20.3828C73.6478 20.3828 74.6898 20.7301 75.4346 21.4248C76.1865 22.1123 76.5625 23.2188 76.5625 24.7441V32.5H74.0381V25.2168C74.0381 24.293 73.8483 23.6019 73.4688 23.1436C73.0892 22.6781 72.502 22.4453 71.707 22.4453C70.554 22.4453 69.752 22.7998 69.3008 23.5088C68.8568 24.2178 68.6348 25.2454 68.6348 26.5918V32.5H66.1104V20.6084H68.0762L68.4307 22.2197H68.5703C68.8281 21.8044 69.1468 21.4642 69.5264 21.1992C69.9131 20.9271 70.3428 20.723 70.8154 20.5869C71.2952 20.4508 71.793 20.3828 72.3086 20.3828ZM88.3359 20.6084V32.5H85.8115V20.6084H88.3359ZM87.0898 16.0537C87.4766 16.0537 87.8096 16.1576 88.0889 16.3652C88.3753 16.5729 88.5186 16.931 88.5186 17.4395C88.5186 17.9408 88.3753 18.2988 88.0889 18.5137C87.8096 18.7214 87.4766 18.8252 87.0898 18.8252C86.6888 18.8252 86.3486 18.7214 86.0693 18.5137C85.7972 18.2988 85.6611 17.9408 85.6611 17.4395C85.6611 16.931 85.7972 16.5729 86.0693 16.3652C86.3486 16.1576 86.6888 16.0537 87.0898 16.0537ZM98.1543 20.3828C99.4935 20.3828 100.535 20.7301 101.28 21.4248C102.032 22.1123 102.408 23.2188 102.408 24.7441V32.5H99.8838V25.2168C99.8838 24.293 99.694 23.6019 99.3145 23.1436C98.9349 22.6781 98.3477 22.4453 97.5527 22.4453C96.3997 22.4453 95.5977 22.7998 95.1465 23.5088C94.7025 24.2178 94.4805 25.2454 94.4805 26.5918V32.5H91.9561V20.6084H93.9219L94.2764 22.2197H94.416C94.6738 21.8044 94.9925 21.4642 95.3721 21.1992C95.7588 20.9271 96.1885 20.723 96.6611 20.5869C97.141 20.4508 97.6387 20.3828 98.1543 20.3828Z" fill="black"/>
</g>
<rect x="1" y="1.5" width="136" height="44" rx="9" stroke="black" stroke-width="2"/>
<defs>
<clipPath id="clip0_52_607">
<rect x="2" y="2.5" width="134" height="42" rx="8" fill="white"/>
</clipPath>
</defs>
</svg>
