<svg width="46" height="48" viewBox="0 0 46 48" fill="none" xmlns="http://www.w3.org/2000/svg">
<g clip-path="url(#clip0_629_1120)">
<path d="M22.94 0C10.27 0 0 10.27 0 22.94C0 28.01 1.65 32.7 4.44 36.5L0 47.66L12.99 43.61C16 45.06 19.37 45.87 22.94 45.87C35.61 45.87 45.88 35.6 45.88 22.93C45.88 10.26 35.61 0 22.94 0Z" fill="#FFD261"/>
<path d="M0.120117 47.4201L12.8701 43.4501C15.8801 44.9001 19.2501 45.7101 22.8201 45.7101C35.4901 45.7101 45.7601 35.4401 45.7601 22.7701C45.7601 16.9301 43.5801 11.6101 39.9901 7.56006L0.120117 47.4201Z" fill="#FEBC38"/>
<path d="M23.3698 35.8C29.6327 35.8 34.7098 30.7229 34.7098 24.46C34.7098 18.1971 29.6327 13.12 23.3698 13.12C17.1069 13.12 12.0298 18.1971 12.0298 24.46C12.0298 30.7229 17.1069 35.8 23.3698 35.8Z" fill="white"/>
<path d="M23.0501 26.39C23.8509 26.39 24.5001 25.7408 24.5001 24.94C24.5001 24.1392 23.8509 23.49 23.0501 23.49C22.2493 23.49 21.6001 24.1392 21.6001 24.94C21.6001 25.7408 22.2493 26.39 23.0501 26.39Z" fill="#FEBC38"/>
<path d="M31.9234 36.3935L31.9304 36.3865C32.2585 36.0584 32.2585 35.5266 31.9304 35.1985L29.498 32.7661C29.17 32.438 28.6381 32.438 28.3101 32.7661L28.303 32.7731C27.9749 33.1012 27.9749 33.633 28.303 33.9611L30.7354 36.3935C31.0635 36.7216 31.5953 36.7216 31.9234 36.3935Z" fill="white"/>
<path d="M12.3698 17.14C13.4798 16.02 15.8098 13.92 18.8598 12.54C19.4898 12.26 19.6198 11.42 19.0798 10.98C17.4398 9.64996 14.2798 7.78996 11.7098 10.51C9.13978 13.23 10.1098 15.65 10.9198 16.96C11.2398 17.47 11.9398 17.56 12.3698 17.14V17.14Z" fill="white"/>
<path d="M14.5723 36.3889L14.5794 36.396C14.9074 36.7241 15.4393 36.7241 15.7673 36.396L18.1998 33.9636C18.5278 33.6355 18.5278 33.1037 18.1998 32.7756L18.1927 32.7686C17.8646 32.4405 17.3328 32.4405 17.0047 32.7686L14.5723 35.201C14.2443 35.5291 14.2443 36.0609 14.5723 36.3889Z" fill="white"/>
<path d="M24.3798 17.2599C23.8798 17.1399 23.3798 17.4499 23.2598 17.9499H23.2398C23.2398 17.9499 23.2198 17.9499 23.2098 17.9499C23.1298 17.6199 22.8798 17.3499 22.5198 17.2599C22.0198 17.1399 21.5198 17.4499 21.3998 17.9499C21.2798 18.4499 21.5898 18.9499 22.0898 19.0699C22.1898 19.0899 22.2898 19.0999 22.3898 19.0899V24.5399C22.3898 25.0099 22.7698 25.3799 23.2298 25.3799C23.6898 25.3799 24.0698 24.9999 24.0698 24.5399V19.0799C24.5198 19.1199 24.9498 18.8299 25.0598 18.3699C25.1798 17.8699 24.8698 17.3699 24.3698 17.2499L24.3798 17.2599Z" fill="#FEBC38"/>
<path d="M28.2698 27.61C27.7898 27.5 27.3198 27.78 27.1698 28.24C27.1298 28.17 27.0898 28.1 27.0298 28.04L23.5698 24.58C23.2398 24.25 22.7098 24.25 22.3798 24.58C22.0498 24.91 22.0498 25.44 22.3798 25.77L25.8398 29.23C25.8398 29.23 25.8898 29.27 25.9098 29.29C25.8398 29.39 25.7798 29.5 25.7498 29.63C25.6298 30.13 25.9398 30.63 26.4398 30.75C26.9398 30.87 27.4398 30.56 27.5598 30.06C27.6498 29.67 27.4798 29.28 27.1598 29.07C27.1898 29.02 27.2098 28.97 27.2298 28.92C27.3498 29.16 27.5698 29.35 27.8498 29.42C28.3498 29.54 28.8498 29.23 28.9698 28.73C29.0898 28.23 28.7798 27.73 28.2798 27.61H28.2698Z" fill="#FEBC38"/>
<path d="M9.37991 22.05C9.37991 22.05 8.28991 22.96 9.05991 23.5C9.05991 23.5 8.56991 24.3601 9.37991 24.9501" stroke="white" stroke-width="0.5" stroke-linecap="round" stroke-linejoin="round"/>
<path d="M38.9899 20.36C38.9899 20.36 39.1099 18.95 38.1899 19.11C38.1899 19.11 37.9299 18.16 36.9399 18.31" stroke="white" stroke-width="0.5" stroke-linecap="round" stroke-linejoin="round"/>
<path d="M7.08011 22.38C7.08011 22.38 5.99011 23.29 6.76011 23.83C6.76011 23.83 6.27011 24.69 7.08011 25.28" stroke="white" stroke-width="0.5" stroke-linecap="round" stroke-linejoin="round"/>
<path d="M28.1002 11.86C29.4602 12.68 32.0502 14.44 34.1102 17.07C34.5302 17.61 35.3802 17.54 35.6702 16.92C36.5702 15.01 37.6302 11.5 34.3802 9.64996C31.1302 7.79996 29.0002 9.30996 27.9302 10.41C27.5102 10.84 27.5902 11.55 28.1002 11.86V11.86Z" fill="white"/>
<path d="M40.7199 19.33C40.7199 19.33 40.8399 17.92 39.9199 18.08C39.9199 18.08 39.6599 17.13 38.6699 17.28" stroke="white" stroke-width="0.5" stroke-linecap="round" stroke-linejoin="round"/>
<path d="M33.1299 32.82C33.1299 32.82 34.5399 32.94 34.3799 32.02C34.3799 32.02 35.3299 31.76 35.1799 30.77" stroke="white" stroke-width="0.5" stroke-linecap="round" stroke-linejoin="round"/>
</g>
<defs>
<clipPath id="clip0_629_1120">
<rect width="45.88" height="47.66" fill="white"/>
</clipPath>
</defs>
</svg>
